<?xml version="1.0" encoding="UTF-8"?>
<svg width="140px" height="140px" viewBox="0 0 140 140" version="1.1" xmlns="http://www.w3.org/2000/svg" xmlns:xlink="http://www.w3.org/1999/xlink">
    <!-- Generator: Sketch 42 (36781) - http://www.bohemiancoding.com/sketch -->
    <title>advisory-board</title>
    <desc>Created with Sketch.</desc>
    <defs></defs>
    <g id="Page-1" stroke="none" stroke-width="1" fill="#222669" fill-rule="evenodd">
        <g id="advisory-board" fill-rule="nonzero" fill="#222669">
            <g id="noun_749626_cc" transform="translate(6.000000, 8.000000)">
                <g id="Page-1">
                    <g>
                        <g id="noun_749626_cc">
                            <g id="Group">
                                <path d="M6.1,28.4 C6.5,28.4 6.9,28.1 6.9,27.6 L6.9,14.2 C6.9,13.8 6.6,13.4 6.1,13.4 C5.7,13.4 5.3,13.7 5.3,14.2 L5.3,27.7 C5.3,28 5.6,28.4 6.1,28.4 Z" id="Shape"></path>
                                <path d="M6.1,37.2 C6.5,37.2 6.9,36.9 6.9,36.4 L6.9,32 C6.9,31.6 6.6,31.2 6.1,31.2 C5.7,31.2 5.3,31.5 5.3,32 L5.3,36.4 C5.3,36.8 5.6,37.2 6.1,37.2 Z" id="Shape"></path>
                                <path d="M126.7,79.7 C126.3,79.7 125.9,80 125.9,80.5 L125.9,94 C125.9,94.4 126.2,94.8 126.7,94.8 C127.1,94.8 127.5,94.5 127.5,94 L127.5,80.4 C127.5,80 127.2,79.7 126.7,79.7 Z" id="Shape"></path>
                                <path d="M126.7,97.5 C126.3,97.5 125.9,97.8 125.9,98.3 L125.9,102.7 C125.9,103.1 126.2,103.5 126.7,103.5 C127.1,103.5 127.5,103.2 127.5,102.7 L127.5,98.3 C127.5,97.9 127.2,97.5 126.7,97.5 Z" id="Shape"></path>
                                <path d="M17.8,7 C17.9,7.1 18.1,7.2 18.3,7.2 C18.5,7.2 18.7,7.1 18.8,7 C19.1,6.7 19.1,6.2 18.8,5.9 L17,4.1 C16.7,3.8 16.2,3.8 15.9,4.1 C15.6,4.4 15.6,4.9 15.9,5.2 L17.8,7 Z" id="Shape"></path>
                                <path d="M23.5,12.7 C23.6,12.8 23.8,12.9 24,12.9 C24.2,12.9 24.4,12.8 24.5,12.7 C24.8,12.4 24.8,11.9 24.5,11.6 L22.7,9.8 C22.4,9.5 21.9,9.5 21.6,9.8 C21.3,10.1 21.3,10.6 21.6,10.9 L23.5,12.7 Z" id="Shape"></path>
                                <path d="M16.6,12.9 C16.8,12.9 17,12.8 17.1,12.7 L18.9,10.9 C19.2,10.6 19.2,10.1 18.9,9.8 C18.6,9.5 18.1,9.5 17.8,9.8 L16,11.6 C15.7,11.9 15.7,12.4 16,12.7 C16.2,12.8 16.4,12.9 16.6,12.9 Z" id="Shape"></path>
                                <path d="M22.2,7.2 C22.4,7.2 22.6,7.1 22.7,7 L24.5,5.2 C24.8,4.9 24.8,4.4 24.5,4.1 C24.2,3.8 23.7,3.8 23.4,4.1 L21.6,5.9 C21.3,6.2 21.3,6.7 21.6,7 C21.9,7.1 22.1,7.2 22.2,7.2 Z" id="Shape"></path>
                                <path d="M78.8,115.1 C78.5,114.8 78,114.8 77.7,115.1 C77.4,115.4 77.4,115.9 77.7,116.2 L79.5,118 C79.6,118.1 79.8,118.2 80,118.2 C80.2,118.2 80.4,118.1 80.5,118 C80.8,117.7 80.8,117.2 80.5,116.9 L78.8,115.1 Z" id="Shape"></path>
                                <path d="M84.5,120.8 C84.2,120.5 83.7,120.5 83.4,120.8 C83.1,121.1 83.1,121.6 83.4,121.9 L85.2,123.7 C85.3,123.8 85.5,123.9 85.7,123.9 C85.9,123.9 86.1,123.8 86.2,123.7 C86.5,123.4 86.5,122.9 86.2,122.6 L84.5,120.8 Z" id="Shape"></path>
                                <path d="M79.5,120.8 L77.7,122.6 C77.4,122.9 77.4,123.4 77.7,123.7 C77.8,123.8 78,123.9 78.2,123.9 C78.4,123.9 78.6,123.8 78.7,123.7 L80.5,121.9 C80.8,121.6 80.8,121.1 80.5,120.8 C80.3,120.5 79.8,120.5 79.5,120.8 Z" id="Shape"></path>
                                <path d="M85.2,115.1 L83.4,116.9 C83.1,117.2 83.1,117.7 83.4,118 C83.5,118.1 83.7,118.2 83.9,118.2 C84.1,118.2 84.3,118.1 84.4,118 L86.2,116.2 C86.5,115.9 86.5,115.4 86.2,115.1 C85.9,114.9 85.5,114.9 85.2,115.1 Z" id="Shape"></path>
                                <path d="M118.3,17.9 L116.5,16.1 C116.2,15.8 115.7,15.8 115.4,16.1 C115.1,16.4 115.1,16.9 115.4,17.2 L117.2,19 C117.3,19.1 117.5,19.2 117.7,19.2 C117.9,19.2 118.1,19.1 118.2,19 C118.6,18.7 118.6,18.2 118.3,17.9 Z" id="Shape"></path>
                                <path d="M122.2,21.8 C121.9,21.5 121.4,21.5 121.1,21.8 C120.8,22.1 120.8,22.6 121.1,22.9 L122.9,24.7 C123,24.8 123.2,24.9 123.4,24.9 C123.6,24.9 123.8,24.8 123.9,24.7 C124.2,24.4 124.2,23.9 123.9,23.6 L122.2,21.8 Z" id="Shape"></path>
                                <path d="M117.3,21.8 L115.5,23.6 C115.2,23.9 115.2,24.4 115.5,24.7 C115.6,24.8 115.8,24.9 116,24.9 C116.2,24.9 116.4,24.8 116.5,24.7 L118.3,22.9 C118.6,22.6 118.6,22.1 118.3,21.8 C118,21.5 117.6,21.5 117.3,21.8 Z" id="Shape"></path>
                                <path d="M122.9,16.1 L121.1,17.9 C120.8,18.2 120.8,18.7 121.1,19 C121.2,19.1 121.4,19.2 121.6,19.2 C121.8,19.2 122,19.1 122.1,19 L123.9,17.2 C124.2,16.9 124.2,16.4 123.9,16.1 C123.7,15.8 123.2,15.8 122.9,16.1 Z" id="Shape"></path>
                                <path d="M45.5,8 C47.7,8 49.4,6.2 49.4,4.1 C49.4,1.9 47.6,0.2 45.5,0.2 C43.3,0.2 41.6,2 41.6,4.1 C41.6,6.2 43.3,8 45.5,8 Z M45.5,1.6 C46.8,1.6 47.9,2.7 47.9,4 C47.9,5.3 46.8,6.4 45.5,6.4 C44.2,6.4 43.1,5.3 43.1,4 C43.1,2.7 44.2,1.6 45.5,1.6 Z" id="Shape"></path>
                                <path d="M104,112.3 C101.8,112.3 100.1,114.1 100.1,116.2 C100.1,118.4 101.9,120.1 104,120.1 C106.2,120.1 107.9,118.3 107.9,116.2 C108,114.1 106.2,112.3 104,112.3 Z M104,118.6 C102.7,118.6 101.6,117.5 101.6,116.2 C101.6,114.9 102.7,113.8 104,113.8 C105.3,113.8 106.4,114.9 106.4,116.2 C106.5,117.6 105.4,118.6 104,118.6 Z" id="Shape"></path>
                                <path d="M4.4,92.4 C2.2,92.4 0.5,94.2 0.5,96.3 C0.5,98.5 2.3,100.2 4.4,100.2 C6.6,100.2 8.3,98.4 8.3,96.3 C8.4,94.1 6.6,92.4 4.4,92.4 Z M4.4,98.7 C3.1,98.7 2,97.6 2,96.3 C2,95 3.1,93.9 4.4,93.9 C5.7,93.9 6.8,95 6.8,96.3 C6.8,97.6 5.8,98.7 4.4,98.7 Z" id="Shape"></path>
                                <path d="M90.4,3.5 L106.9,3.5 C107.3,3.5 107.7,3.2 107.7,2.7 C107.7,2.3 107.4,1.9 106.9,1.9 L90.4,1.9 C90,1.9 89.6,2.2 89.6,2.7 C89.6,3.2 90,3.5 90.4,3.5 Z" id="Shape"></path>
                                <path d="M112.3,3.5 L117.7,3.5 C118.1,3.5 118.5,3.2 118.5,2.7 C118.5,2.3 118.2,1.9 117.7,1.9 L112.3,1.9 C111.9,1.9 111.5,2.2 111.5,2.7 C111.6,3.2 111.9,3.5 112.3,3.5 Z" id="Shape"></path>
                                <path d="M118.4,8.4 C118.4,8 118.1,7.6 117.6,7.6 L106.1,7.6 C105.7,7.6 105.3,7.9 105.3,8.4 C105.3,8.8 105.6,9.2 106.1,9.2 L117.6,9.2 C118.1,9.2 118.4,8.8 118.4,8.4 Z" id="Shape"></path>
                                <path d="M101.2,9.2 C101.6,9.2 102,8.9 102,8.4 C102,8 101.7,7.6 101.2,7.6 L97.5,7.6 C97.1,7.6 96.7,7.9 96.7,8.4 C96.7,8.8 97,9.2 97.5,9.2 L101.2,9.2 Z" id="Shape"></path>
                                <path d="M49.6,121.1 L33,121.1 C32.6,121.1 32.2,121.4 32.2,121.9 C32.2,122.3 32.5,122.7 33,122.7 L49.5,122.7 C49.9,122.7 50.3,122.4 50.3,121.9 C50.3,121.5 50,121.1 49.6,121.1 Z" id="Shape"></path>
                                <path d="M27.6,121.1 L22.2,121.1 C21.8,121.1 21.4,121.4 21.4,121.9 C21.4,122.3 21.7,122.7 22.2,122.7 L27.6,122.7 C28,122.7 28.4,122.4 28.4,121.9 C28.4,121.5 28,121.1 27.6,121.1 Z" id="Shape"></path>
                                <path d="M22.2,117 L33.7,117 C34.1,117 34.5,116.7 34.5,116.2 C34.5,115.8 34.2,115.4 33.7,115.4 L22.2,115.4 C21.8,115.4 21.4,115.7 21.4,116.2 C21.5,116.6 21.8,117 22.2,117 Z" id="Shape"></path>
                                <path d="M42.5,117 C42.9,117 43.3,116.7 43.3,116.2 C43.3,115.8 43,115.4 42.5,115.4 L38.8,115.4 C38.4,115.4 38,115.7 38,116.2 C38,116.6 38.3,117 38.8,117 L42.5,117 Z" id="Shape"></path>
                                <path d="M95.4,35.2 C96.3,37 97.7,38.1 99.4,38.5 C99.8,38.6 100.2,38.6 100.6,38.6 C103.7,38.6 106.6,36 107.5,32.3 L107.5,32.3 C108.5,28.1 106.4,24 102.9,23.2 C99.4,22.4 95.7,25.2 94.8,29.4 C94.3,31.4 94.5,33.5 95.4,35.2 Z M96.3,29.7 C97,26.7 99.3,24.5 101.7,24.5 C102,24.5 102.3,24.5 102.6,24.6 C105.3,25.2 106.9,28.5 106.1,31.9 C105.3,35.3 102.5,37.6 99.8,37 C98.5,36.7 97.4,35.8 96.8,34.5 C96,33.1 95.9,31.4 96.3,29.7 Z" id="Shape"></path>
                                <path d="M119.4,42.1 C118.7,41.8 118,42 117.5,42.5 C113.8,46.2 111.7,51.2 111.7,56.5 L111.7,80.4 L88.9,80.4 L88.9,77 L101.1,77 C102.8,77 104.5,76.3 105.7,75.1 C106.9,73.9 107.6,72.2 107.6,70.5 L107.6,47.5 C107.6,45.8 106.9,44.1 105.7,42.9 C104.5,41.7 102.8,41 101.1,41 C99.4,41 97.7,41.7 96.5,42.9 L96.4,43 L87.8,55.6 L81,57 L81,43.7 C81,39.2 77.4,35.6 72.9,35.6 L59.5,35.6 C55,35.6 51.4,39.2 51.4,43.7 L51.4,57 L44.5,55.5 L35.9,42.9 L35.8,42.8 C34.6,41.6 32.9,40.9 31.2,40.9 C29.5,40.9 27.8,41.6 26.6,42.8 C25.4,44 24.7,45.7 24.7,47.4 L24.7,70.3 C24.7,72 25.4,73.7 26.6,74.9 C27.8,76.1 29.5,76.8 31.2,76.8 L43.5,76.8 L43.5,80.2 L20.6,80.2 L20.6,56.4 C20.6,51.1 18.5,46.1 14.8,42.4 C14.3,41.9 13.6,41.8 12.9,42 C12.2,42.3 11.8,42.9 11.8,43.6 L11.8,88.2 C11.8,88.6 12.1,89 12.6,89 L14.8,89 L14.8,109.4 C14.8,109.8 15.1,110.2 15.6,110.2 L18.1,110.2 C18.5,110.2 18.8,109.9 18.8,109.5 L21,89 L39.9,89 L43.6,104.4 L43.6,109.4 C43.6,109.8 43.9,110.2 44.4,110.2 L88.3,110.2 C88.7,110.2 89.1,109.9 89.1,109.4 L89.1,104.4 L92.6,89 L111.4,89 L113.5,109.4 C113.5,109.8 113.9,110.1 114.2,110.1 L116.7,110.1 C117.1,110.1 117.5,109.8 117.5,109.3 L117.5,89 L119.7,89 C120.1,89 120.5,88.7 120.5,88.2 L120.5,43.7 C120.5,43 120.1,42.3 119.4,42.1 Z M17.4,108.6 L16.3,108.6 L16.3,89 L19.4,89 L17.4,108.6 Z M43.5,97.9 L41.4,89 L43.5,89 L43.5,97.9 Z M43.5,87.5 L20.3,87.5 L15.6,87.5 L13.4,87.5 L13.4,43.7 C13.4,43.6 13.5,43.5 13.5,43.5 C13.6,43.5 13.7,43.5 13.8,43.6 C17.3,47.1 19.2,51.6 19.2,56.5 L19.2,81 C19.2,81.4 19.5,81.8 20,81.8 L43.6,81.8 L43.6,87.5 L43.5,87.5 Z M88.4,57 C88.6,57 88.8,56.8 88.9,56.7 L97.7,43.9 C98.6,43 99.9,42.5 101.2,42.5 C102.5,42.5 103.8,43 104.8,44 C105.8,45 106.3,46.2 106.3,47.6 L106.3,70.5 C106.3,71.8 105.8,73.1 104.8,74.1 C103.8,75.1 102.6,75.6 101.2,75.6 L88.9,75.6 L88.9,70.6 L97.8,70.6 C98.2,70.6 98.6,70.3 98.6,69.8 L98.6,69.8 L98.6,69.8 L98.6,57.5 C98.6,57.2 98.4,56.9 98.1,56.8 C97.8,56.7 97.5,56.7 97.3,56.9 L92.6,61.4 L87.2,61.4 L78,61.4 C77.4,61.1 77.1,60.7 77.1,60.5 C77.1,60.1 77.7,59.5 78.2,59.2 L88.4,57 Z M88.9,68.8 L88.9,66.4 L92.9,66.4 C93.3,66.4 93.7,66.1 93.7,65.6 L93.7,62.5 L97.1,59.2 L97.1,68.8 L88.9,68.8 Z M52.9,43.7 C52.9,40.1 55.9,37.1 59.5,37.1 L72.9,37.1 C76.5,37.1 79.5,40.1 79.5,43.7 L79.5,57.3 L77.7,57.7 C77.6,57.7 77.5,57.7 77.5,57.8 C77.3,57.9 75.6,59 75.6,60.5 C75.6,60.8 75.7,61.1 75.9,61.4 L56.6,61.4 C56.8,61.1 56.8,60.8 56.9,60.5 C57,59 55.2,57.9 55,57.8 C54.9,57.8 54.9,57.7 54.8,57.7 L53,57.3 L53,43.7 L52.9,43.7 Z M43.5,75.4 L31.2,75.4 C29.9,75.4 28.6,74.9 27.6,73.9 C26.6,72.9 26.1,71.7 26.1,70.3 L26.1,47.5 C26.1,46.2 26.6,44.9 27.6,43.9 C28.6,42.9 29.8,42.4 31.2,42.4 C32.5,42.4 33.8,42.9 34.7,43.8 L43.5,56.6 C43.6,56.8 43.8,56.9 44,56.9 L54.3,59.1 C54.7,59.4 55.4,60 55.4,60.4 C55.4,60.7 55,61 54.5,61.3 L45.2,61.3 L39.8,61.3 L35.1,56.8 C34.9,56.6 34.6,56.5 34.3,56.7 C34,56.8 33.8,57.1 33.8,57.4 L33.8,69.5 C33.8,69.9 34.1,70.3 34.6,70.3 L34.7,70.3 L43.6,70.3 L43.6,75.4 L43.5,75.4 Z M43.5,68.8 L35.3,68.8 L35.3,59.3 L38.7,62.6 L38.7,65.7 C38.7,66.1 39,66.5 39.5,66.5 L43.5,66.5 L43.5,68.8 L43.5,68.8 Z M87.4,108.6 L45,108.6 L45,66.4 L87.4,66.4 L87.4,108.6 Z M88.2,64.9 L44.3,64.9 L40.3,64.9 L40.3,63 L45.4,63 L54.6,63 L54.6,63 L54.6,63 L77.8,63 L77.8,63 L77.8,63 L87,63 L92.1,63 L92.1,64.9 L88.2,64.9 Z M88.9,97.9 L88.9,89 L91,89 L88.9,97.9 Z M116.1,108.6 L115,108.6 L113,89 L116.1,89 L116.1,108.6 Z M119,87.5 L116.8,87.5 L112.1,87.5 L88.9,87.5 L88.9,81.7 L112.5,81.7 C112.9,81.7 113.3,81.4 113.3,80.9 L113.3,56.4 C113.3,51.5 115.2,46.9 118.7,43.5 C118.8,43.4 118.9,43.4 119,43.4 C119.1,43.4 119.1,43.5 119.1,43.6 L119.1,87.5 L119,87.5 Z" id="Shape"></path>
                                <path d="M24.8,32.3 L24.8,32.3 C25.7,36 28.6,38.6 31.7,38.6 C32.1,38.6 32.5,38.6 32.9,38.5 C36.4,37.7 38.5,33.6 37.5,29.4 C36.5,25.2 32.9,22.4 29.4,23.2 C26,24 23.9,28.1 24.8,32.3 Z M29.8,24.7 C32.5,24.1 35.3,26.3 36.1,29.8 C36.9,33.3 35.3,36.5 32.6,37.1 C29.9,37.7 27.1,35.5 26.3,32 L26.3,32 C25.5,28.6 27.1,25.3 29.8,24.7 Z" id="Shape"></path>
                                <path d="M54.2,103.4 C54.6,103.4 55,103.1 55,102.6 L55,72.4 C55,72 54.7,71.6 54.2,71.6 C53.8,71.6 53.4,71.9 53.4,72.4 L53.4,102.7 C53.4,103.1 53.7,103.4 54.2,103.4 Z" id="Shape"></path>
                                <path d="M62.2,103.4 C62.6,103.4 63,103.1 63,102.6 L63,72.4 C63,72 62.7,71.6 62.2,71.6 C61.8,71.6 61.4,71.9 61.4,72.4 L61.4,102.7 C61.4,103.1 61.8,103.4 62.2,103.4 Z" id="Shape"></path>
                                <path d="M70.2,103.4 C70.6,103.4 71,103.1 71,102.6 L71,72.4 C71,72 70.7,71.6 70.2,71.6 C69.8,71.6 69.4,71.9 69.4,72.4 L69.4,102.7 C69.5,103.1 69.8,103.4 70.2,103.4 Z" id="Shape"></path>
                                <path d="M78.3,103.4 C78.7,103.4 79.1,103.1 79.1,102.6 L79.1,72.4 C79.1,72 78.8,71.6 78.3,71.6 C77.9,71.6 77.5,71.9 77.5,72.4 L77.5,102.7 C77.5,103.1 77.8,103.4 78.3,103.4 Z" id="Shape"></path>
                                <path d="M66.2,32.2 C70.5,32.2 74,28.7 74,24.4 C74,20.1 70.5,16.6 66.2,16.6 C61.9,16.6 58.4,20.1 58.4,24.4 C58.4,28.7 61.9,32.2 66.2,32.2 Z M66.2,18.1 C69.7,18.1 72.5,20.9 72.5,24.4 C72.5,27.9 69.7,30.7 66.2,30.7 C62.7,30.7 59.9,27.9 59.9,24.4 C59.9,20.9 62.7,18.1 66.2,18.1 Z" id="Shape"></path>
                                <path d="M63.8,40 L65.3,40 L63.4,53.8 L63.4,54.2 C63.4,54.4 63.5,54.5 63.6,54.7 L65.6,56.7 C65.7,56.8 65.9,56.9 66.1,56.9 C66.3,56.9 66.5,56.8 66.6,56.7 L68.6,54.7 C68.7,54.6 68.8,54.4 68.8,54.2 C68.8,54.1 68.9,54 68.8,53.8 L67.1,40 L68.6,40 C69,40 69.4,39.7 69.4,39.2 C69.4,38.8 69.1,38.4 68.6,38.4 L63.8,38.4 C63.4,38.4 63,38.7 63,39.2 C63.1,39.7 63.4,40 63.8,40 Z M67.5,53.7 L66.2,55 L65,53.7 L66.2,44.7 L67.5,53.7 Z" id="Shape"></path>
                            </g>
                        </g>
                    </g>
                </g>
            </g>
        </g>
    </g>
</svg>