<?xml version="1.0" encoding="UTF-8"?>
<svg width="140px" height="140px" viewBox="0 0 140 140" version="1.1" xmlns="http://www.w3.org/2000/svg" xmlns:xlink="http://www.w3.org/1999/xlink">
    <!-- Generator: Sketch 42 (36781) - http://www.bohemiancoding.com/sketch -->
    <title>cyber-security-professionals</title>
    <desc>Created with Sketch.</desc>
    <defs></defs>
    <g id="Page-1" stroke="none" stroke-width="1" fill="#222669" fill-rule="evenodd">
        <g id="cyber-security-professionals" fill-rule="nonzero" fill="#222669">
            <g id="noun_749530_cc" transform="translate(6.000000, 12.000000)">
                <g id="noun_750008_cc">
                    <g id="Page-1">
                        <g id="noun_750008_cc">
                            <g id="Group">
                                <path d="M94.3609375,13.3046875 C94.4632812,13.4070313 94.6679687,13.509375 94.8726562,13.509375 C95.0773437,13.509375 95.2820312,13.4070313 95.384375,13.3046875 C95.6914062,12.9976563 95.6914062,12.4859375 95.384375,12.1789063 L93.746875,10.5414063 C93.4398437,10.234375 92.928125,10.234375 92.6210938,10.5414063 C92.3140625,10.8484375 92.3140625,11.3601562 92.6210938,11.6671875 L94.3609375,13.3046875 Z" id="Shape"></path>
                                <path d="M99.6828125,18.6265625 C99.7851563,18.7289063 99.9898438,18.83125 100.194531,18.83125 C100.399219,18.83125 100.603906,18.7289063 100.70625,18.6265625 C101.013281,18.3195313 101.013281,17.8078125 100.70625,17.5007813 L99.06875,15.8632812 C98.7617188,15.55625 98.25,15.55625 97.9429688,15.8632812 C97.6359375,16.1703125 97.6359375,16.6820313 97.9429688,16.9890625 L99.6828125,18.6265625 Z" id="Shape"></path>
                                <path d="M93.2351562,18.83125 C93.4398437,18.83125 93.6445312,18.7289063 93.746875,18.6265625 L95.384375,16.9890625 C95.6914062,16.6820313 95.6914062,16.1703125 95.384375,15.8632812 C95.0773437,15.55625 94.565625,15.55625 94.2585937,15.8632812 L92.6210938,17.5007813 C92.3140625,17.8078125 92.3140625,18.3195313 92.6210938,18.6265625 C92.8257812,18.83125 93.0304687,18.83125 93.2351562,18.83125 Z" id="Shape"></path>
                                <path d="M98.5570312,13.509375 C98.7617187,13.509375 98.9664062,13.4070313 99.06875,13.3046875 L100.70625,11.6671875 C101.013281,11.3601562 101.013281,10.8484375 100.70625,10.5414063 C100.399219,10.234375 99.8875,10.234375 99.5804687,10.5414063 L98.0453125,12.28125 C97.7382812,12.5882813 97.7382812,13.1 98.0453125,13.4070313 C98.1476562,13.509375 98.3523437,13.509375 98.5570312,13.509375 Z" id="Shape"></path>
                                <path d="M1.8421875,108.791406 C1.53515625,108.484375 1.0234375,108.484375 0.71640625,108.791406 C0.409375,109.098438 0.409375,109.610156 0.71640625,109.917188 L2.35390625,111.554688 C2.45625,111.657031 2.6609375,111.759375 2.865625,111.759375 C3.0703125,111.759375 3.275,111.657031 3.37734375,111.554688 C3.684375,111.247656 3.684375,110.735938 3.37734375,110.428906 L1.8421875,108.791406 Z" id="Shape"></path>
                                <path d="M7.1640625,114.113281 C6.85703125,113.80625 6.3453125,113.80625 6.03828125,114.113281 C5.73125,114.420312 5.73125,114.932031 6.03828125,115.239062 L7.67578125,116.876562 C7.778125,116.978906 7.9828125,117.08125 8.1875,117.08125 C8.3921875,117.08125 8.596875,116.978906 8.69921875,116.876562 C9.00625,116.569531 9.00625,116.057812 8.69921875,115.750781 L7.1640625,114.113281 Z" id="Shape"></path>
                                <path d="M2.35390625,114.113281 L0.71640625,115.750781 C0.409375,116.057812 0.409375,116.569531 0.71640625,116.876562 C0.81875,116.978906 1.0234375,117.08125 1.228125,117.08125 C1.4328125,117.08125 1.6375,116.978906 1.73984375,116.876562 L3.37734375,115.239062 C3.684375,114.932031 3.684375,114.420312 3.37734375,114.113281 C3.17265625,113.80625 2.6609375,113.80625 2.35390625,114.113281 Z" id="Shape"></path>
                                <path d="M7.67578125,108.791406 L6.03828125,110.428906 C5.73125,110.735938 5.73125,111.247656 6.03828125,111.554688 C6.140625,111.657031 6.3453125,111.759375 6.55,111.759375 C6.7546875,111.759375 6.959375,111.657031 7.06171875,111.554688 L8.69921875,109.917188 C9.00625,109.610156 9.00625,109.098438 8.69921875,108.791406 C8.49453125,108.484375 7.9828125,108.484375 7.67578125,108.791406 Z" id="Shape"></path>
                                <path d="M120.560937,59.6664062 C120.253906,59.9734375 120.253906,60.4851563 120.560937,60.7921875 L122.198437,62.4296875 C122.300781,62.5320313 122.505469,62.634375 122.710156,62.634375 C122.914844,62.634375 123.119531,62.5320313 123.221875,62.4296875 C123.528906,62.1226563 123.528906,61.6109375 123.221875,61.3039062 L121.584375,59.6664062 C121.379687,59.359375 120.867969,59.359375 120.560937,59.6664062 Z" id="Shape"></path>
                                <path d="M127.520312,67.6492187 C127.622656,67.7515625 127.827344,67.8539062 128.032031,67.8539062 C128.236719,67.8539062 128.441406,67.7515625 128.54375,67.6492187 C128.850781,67.3421875 128.850781,66.8304687 128.54375,66.5234375 L126.90625,64.8859375 C126.599219,64.5789062 126.0875,64.5789062 125.780469,64.8859375 C125.473437,65.1929687 125.473437,65.7046875 125.780469,66.0117187 L127.520312,67.6492187 Z" id="Shape"></path>
                                <path d="M122.198437,64.9882812 L120.560937,66.6257812 C120.253906,66.9328125 120.253906,67.4445312 120.560937,67.7515625 C120.663281,67.8539062 120.867969,67.95625 121.072656,67.95625 C121.277344,67.95625 121.482031,67.8539062 121.584375,67.7515625 L123.221875,66.1140625 C123.528906,65.8070312 123.528906,65.2953125 123.221875,64.9882812 C123.017187,64.68125 122.505469,64.68125 122.198437,64.9882812 Z" id="Shape"></path>
                                <path d="M126.496875,62.5320313 C126.701562,62.5320313 126.90625,62.4296875 127.008594,62.3273437 L128.646094,60.6898438 C128.953125,60.3828125 128.953125,59.8710938 128.646094,59.5640625 C128.339063,59.2570313 127.827344,59.2570313 127.520312,59.5640625 L125.882812,61.2015625 C125.575781,61.5085938 125.575781,62.0203125 125.882812,62.3273437 C126.0875,62.5320313 126.292187,62.5320313 126.496875,62.5320313 Z" id="Shape"></path>
                                <path d="M4.81015625,35.5132812 C5.21953125,35.5132812 5.62890625,35.20625 5.62890625,34.6945312 L5.62890625,22.7203125 C5.62890625,22.3109375 5.321875,21.9015625 4.81015625,21.9015625 C4.40078125,21.9015625 3.99140625,22.2085938 3.99140625,22.7203125 L3.99140625,34.796875 C3.99140625,35.20625 4.2984375,35.5132812 4.81015625,35.5132812 Z" id="Shape"></path>
                                <path d="M4.81015625,45.5429688 C5.21953125,45.5429688 5.62890625,45.2359375 5.62890625,44.7242188 L5.62890625,40.4257812 C5.62890625,40.0164062 5.321875,39.6070312 4.81015625,39.6070312 C4.40078125,39.6070312 3.99140625,39.9140625 3.99140625,40.4257812 L3.99140625,44.7242188 C3.99140625,45.1335938 4.2984375,45.5429688 4.81015625,45.5429688 Z" id="Shape"></path>
                                <path d="M120.560937,14.6351563 C120.970313,14.6351563 121.379688,14.328125 121.379688,13.8164063 L121.379688,1.73984375 C121.379688,1.33046875 121.072656,0.92109375 120.560937,0.92109375 C120.151563,0.92109375 119.742188,1.228125 119.742188,1.73984375 L119.742188,13.8164063 C119.844531,14.2257813 120.151563,14.6351563 120.560937,14.6351563 Z" id="Shape"></path>
                                <path d="M120.560937,24.5625 C120.970313,24.5625 121.379688,24.2554687 121.379688,23.74375 L121.379688,19.4453125 C121.379688,19.0359375 121.072656,18.6265625 120.560937,18.6265625 C120.151563,18.6265625 119.742188,18.9335937 119.742188,19.4453125 L119.742188,23.74375 C119.844531,24.2554687 120.151563,24.5625 120.560937,24.5625 Z" id="Shape"></path>
                                <path d="M58.13125,15.3515625 C60.0757813,15.3515625 61.7132813,13.7140625 61.7132813,11.7695312 C61.7132813,9.825 60.0757813,8.1875 58.13125,8.1875 C56.1867188,8.1875 54.5492188,9.825 54.5492188,11.7695312 C54.5492188,13.8164062 56.084375,15.3515625 58.13125,15.3515625 Z M58.13125,9.72265625 C59.2570313,9.72265625 60.178125,10.64375 60.178125,11.7695312 C60.178125,12.8953125 59.2570313,13.8164062 58.13125,13.8164062 C57.0054688,13.8164062 56.084375,12.8953125 56.084375,11.7695312 C56.084375,10.64375 57.0054688,9.72265625 58.13125,9.72265625 Z" id="Shape"></path>
                                <path d="M49.8414062,107.972656 C47.896875,107.972656 46.259375,109.610156 46.259375,111.554688 C46.259375,113.499219 47.896875,115.136719 49.8414062,115.136719 C51.7859375,115.136719 53.4234375,113.499219 53.4234375,111.554688 C53.4234375,109.610156 51.7859375,107.972656 49.8414062,107.972656 Z M49.8414062,113.601562 C48.715625,113.601562 47.7945312,112.680469 47.7945312,111.554688 C47.7945312,110.428906 48.715625,109.507812 49.8414062,109.507812 C50.9671875,109.507812 51.8882812,110.428906 51.8882812,111.554688 C51.8882812,112.680469 50.9671875,113.601562 49.8414062,113.601562 Z" id="Shape"></path>
                                <path d="M8.3921875,76.9625 C8.3921875,75.0179687 6.7546875,73.3804688 4.81015625,73.3804688 C2.865625,73.3804688 1.228125,75.0179687 1.228125,76.9625 C1.228125,78.9070313 2.865625,80.5445313 4.81015625,80.5445313 C6.7546875,80.5445313 8.3921875,78.9070313 8.3921875,76.9625 Z M4.81015625,79.009375 C3.684375,79.009375 2.76328125,78.0882812 2.76328125,76.9625 C2.76328125,75.8367188 3.684375,74.915625 4.81015625,74.915625 C5.9359375,74.915625 6.85703125,75.8367188 6.85703125,76.9625 C6.85703125,78.0882812 5.9359375,79.009375 4.81015625,79.009375 Z" id="Shape"></path>
                                <path d="M18.5242187,7.1640625 C18.5242187,7.5734375 18.83125,7.9828125 19.3429687,7.9828125 L35.1039062,7.9828125 C35.5132813,7.9828125 35.9226563,7.67578125 35.9226563,7.1640625 C35.9226563,6.65234375 35.615625,6.3453125 35.1039062,6.3453125 L19.240625,6.3453125 C18.83125,6.3453125 18.5242187,6.7546875 18.5242187,7.1640625 Z" id="Shape"></path>
                                <path d="M9.00625,7.88046875 L14.1234375,7.88046875 C14.5328125,7.88046875 14.9421875,7.5734375 14.9421875,7.06171875 C14.9421875,6.55 14.6351563,6.24296875 14.1234375,6.24296875 L9.00625,6.24296875 C8.596875,6.3453125 8.1875,6.7546875 8.1875,7.1640625 C8.1875,7.5734375 8.596875,7.88046875 9.00625,7.88046875 Z" id="Shape"></path>
                                <path d="M9.00625,2.55859375 L20.059375,2.55859375 C20.46875,2.55859375 20.878125,2.2515625 20.878125,1.73984375 C20.878125,1.228125 20.46875,0.92109375 19.9570312,0.92109375 L9.00625,0.92109375 C8.596875,0.92109375 8.1875,1.33046875 8.1875,1.73984375 C8.1875,2.14921875 8.596875,2.55859375 9.00625,2.55859375 Z" id="Shape"></path>
                                <path d="M24.7671875,2.55859375 L28.3492187,2.55859375 C28.7585938,2.55859375 29.1679688,2.2515625 29.1679688,1.73984375 C29.1679688,1.228125 28.8609375,0.92109375 28.3492187,0.92109375 L24.7671875,0.92109375 C24.3578125,0.92109375 23.9484375,1.228125 23.9484375,1.73984375 C23.9484375,2.2515625 24.3578125,2.55859375 24.7671875,2.55859375 Z" id="Shape"></path>
                                <path d="M120.151562,111.554688 C120.151562,111.145312 119.844531,110.735938 119.332812,110.735938 L103.571875,110.735938 C103.1625,110.735938 102.753125,111.042969 102.753125,111.554688 C102.753125,111.964063 103.060156,112.373437 103.571875,112.373437 L119.332812,112.373437 C119.844531,112.373437 120.151562,111.964063 120.151562,111.554688 Z" id="Shape"></path>
                                <path d="M123.835938,111.554688 C123.835938,111.964063 124.142969,112.373437 124.654687,112.373437 L129.771875,112.373437 C130.18125,112.373437 130.590625,112.066406 130.590625,111.554688 C130.590625,111.145312 130.283594,110.735938 129.771875,110.735938 L124.654687,110.735938 C124.142969,110.838281 123.835938,111.145312 123.835938,111.554688 Z" id="Shape"></path>
                                <path d="M129.669531,116.160156 L118.71875,116.160156 C118.309375,116.160156 117.9,116.467187 117.9,116.978906 C117.9,117.490625 118.207031,117.797656 118.71875,117.797656 L129.771875,117.797656 C130.18125,117.797656 130.590625,117.490625 130.590625,116.978906 C130.590625,116.467187 130.18125,116.160156 129.669531,116.160156 Z" id="Shape"></path>
                                <path d="M114.010938,116.160156 L110.428906,116.160156 C110.019531,116.160156 109.610156,116.467187 109.610156,116.978906 C109.610156,117.490625 109.917188,117.797656 110.428906,117.797656 L114.010938,117.797656 C114.420312,117.797656 114.829688,117.490625 114.829688,116.978906 C114.829688,116.467187 114.420312,116.160156 114.010938,116.160156 Z" id="Shape"></path>
                                <path d="M22.0039062,32.9546875 C19.0359375,32.9546875 16.5796875,35.4109375 16.5796875,38.3789062 L16.5796875,90.7789063 C16.5796875,91.1882812 16.8867187,91.5976562 17.3984375,91.5976562 L114.932031,91.5976562 C115.341406,91.5976562 115.750781,91.290625 115.750781,90.7789063 L115.750781,38.3789062 C115.750781,35.4109375 113.294531,32.9546875 110.326563,32.9546875 L82.69375,32.9546875 C81.5679688,30.703125 80.1351563,28.7585937 78.3953125,26.9164062 C73.9945313,22.515625 68.2632813,20.1617187 62.0203125,20.1617187 C55.8796875,20.1617187 50.0460938,22.515625 45.6453125,26.9164062 C43.9054688,28.65625 42.3703125,30.703125 41.346875,32.9546875 L22.0039062,32.9546875 Z M110.121875,34.4898438 C112.271094,34.4898438 114.010938,36.2296875 114.010938,38.3789063 L114.010938,90.0625 L18.1148437,90.0625 L18.1148437,38.3789063 C18.1148437,36.2296875 19.8546875,34.4898438 22.0039062,34.4898438 L40.528125,34.4898438 C40.4257813,34.796875 40.3234375,35.0015625 40.2210938,35.3085938 C39.709375,36.7414063 39.3,38.3789063 38.9929688,40.0164063 C38.890625,41.0398438 38.7882813,42.0632813 38.7882813,43.1890625 L38.7882813,43.1890625 C38.7882813,44.9289063 38.9929688,46.66875 39.4023438,48.30625 L24.153125,48.30625 C23.74375,48.30625 23.334375,48.6132813 23.334375,49.125 C23.334375,49.6367188 23.6414062,49.94375 24.153125,49.94375 L39.8117188,49.94375 C40.0164063,50.5578125 40.2210938,51.171875 40.4257813,51.6835938 C40.6304688,52.1953125 40.8351563,52.7070313 41.1421875,53.21875 L33.6710937,53.21875 L24.2554687,53.21875 C23.8460937,53.21875 23.4367187,53.5257813 23.4367187,54.0375 C23.4367187,54.5492188 23.74375,54.85625 24.2554687,54.85625 L33.6710937,54.85625 L41.9609375,54.85625 C42.575,55.9820313 43.39375,57.1078125 44.2125,58.13125 L24.153125,58.13125 C23.74375,58.13125 23.334375,58.4382813 23.334375,58.95 C23.334375,59.359375 23.6414062,59.76875 24.153125,59.76875 L45.5429688,59.76875 L45.5429688,59.76875 C46.8734375,61.0992188 48.4085938,62.225 49.94375,63.2484375 C49.7390625,63.3507813 49.6367188,63.5554688 49.6367188,63.8625 C49.6367188,64.271875 49.94375,64.68125 50.4554688,64.68125 L52.5023438,64.68125 L52.5023438,64.68125 C55.4703125,66.0117188 58.6429688,66.6257813 61.815625,66.6257813 C66.6257813,66.6257813 71.5382813,65.090625 75.6320313,62.0203125 L80.646875,67.95625 L24.153125,67.95625 C23.74375,67.95625 23.334375,68.2632813 23.334375,68.775 C23.334375,69.184375 23.6414062,69.59375 24.153125,69.59375 L81.9773438,69.59375 L82.0796875,69.59375 L84.8429688,72.86875 L24.153125,72.86875 C23.74375,72.86875 23.334375,73.1757813 23.334375,73.6875 C23.334375,74.096875 23.6414062,74.50625 24.153125,74.50625 L86.1734375,74.50625 L89.1414063,77.9859375 C88.9367188,78.0882813 88.834375,78.2929688 88.834375,78.6 C88.834375,79.009375 89.1414063,79.41875 89.653125,79.41875 L90.3695313,79.41875 L95.1796875,85.15 C95.79375,85.8664063 96.6125,86.2757813 97.43125,86.2757813 L97.5335938,86.2757813 C98.3523438,86.2757813 99.1710938,85.96875 99.7851563,85.3546875 L103.469531,81.6703125 C104.083594,81.05625 104.390625,80.2375 104.390625,79.3164063 C104.390625,78.3953125 103.98125,77.5765625 103.264844,77.0648438 L94.6679688,69.7984375 L94.8726563,69.7984375 C95.2820313,69.7984375 95.6914063,69.4914063 95.6914063,68.9796875 C95.6914063,68.5703125 95.384375,68.1609375 94.8726563,68.1609375 L92.8257813,68.1609375 L92.8257813,68.1609375 L88.9367188,64.8859375 L100.194531,64.8859375 C100.603906,64.8859375 101.013281,64.5789063 101.013281,64.0671875 C101.013281,63.6578125 100.70625,63.2484375 100.194531,63.2484375 L87.196875,63.2484375 L83.3078125,59.9734375 L83.6148438,59.9734375 C84.0242188,59.9734375 84.4335938,59.6664063 84.4335938,59.1546875 C84.4335938,58.7453125 84.1265625,58.3359375 83.6148438,58.3359375 L81.5679688,58.3359375 C81.5679688,58.3359375 81.5679688,58.3359375 81.465625,58.3359375 L80.3398438,57.4148438 C80.9539063,56.5960938 81.465625,55.8796875 81.9773438,55.0609375 L94.2585938,55.0609375 C94.6679688,55.0609375 95.0773438,54.7539063 95.0773438,54.2421875 C95.0773438,53.7304688 94.6679688,53.21875 94.2585938,53.21875 L82.7960938,53.21875 C83.0007813,52.7070313 83.2054688,52.1953125 83.4101563,51.6835938 C83.6148438,51.0695313 83.8195313,50.4554688 84.0242188,49.94375 L103.571875,49.94375 C103.98125,49.94375 104.390625,49.6367188 104.390625,49.125 C104.390625,48.6132813 104.083594,48.30625 103.571875,48.30625 L84.4335938,48.30625 C84.8429688,46.66875 85.0476563,44.9289063 85.0476563,43.1890625 C85.0476563,42.0632813 84.9453125,41.0398438 84.8429688,40.0164063 C84.6382813,38.3789063 84.2289063,36.84375 83.6148438,35.3085938 C83.5125,35.0015625 83.4101563,34.796875 83.3078125,34.4898438 L110.121875,34.4898438 Z M78.190625,59.5640625 C78.6,59.1546875 78.9070313,58.8476562 79.2140625,58.4382813 L79.3164062,58.3359375 L102.139063,77.6789063 C102.446094,77.9859375 102.650781,78.3953125 102.753125,78.8046875 C102.753125,79.2140625 102.650781,79.7257813 102.241406,80.0328125 L98.5570313,83.7171875 C98.25,84.0242188 97.840625,84.2289063 97.3289063,84.2289063 C96.9195313,84.2289063 96.5101563,84.0242188 96.203125,83.6148438 L96.203125,83.6148438 L76.9625,60.7921875 L77.0648438,60.6898438 C77.4742188,60.3828125 77.8835938,59.9734375 78.190625,59.5640625 Z M46.66875,28.0421875 C50.7625,23.9484375 56.1867187,21.696875 61.9179688,21.696875 C67.6492187,21.696875 73.0734375,23.9484375 77.1671875,28.0421875 C79.41875,30.29375 81.05625,32.8523438 82.1820312,35.8203125 C82.69375,37.253125 83.103125,38.6859375 83.3078125,40.2210938 C83.4101562,41.1421875 83.5125,42.165625 83.5125,43.1890625 C83.5125,45.9523438 83.0007812,48.6132813 82.0796875,51.0695313 C81.2609375,53.1164063 80.2375,55.0609375 78.8046875,56.6984375 C78.3953125,57.2101563 77.9859375,57.6195313 77.5765625,58.13125 C77.4742187,58.2335938 77.371875,58.3359375 77.2695312,58.4382813 C76.9625,58.7453125 76.553125,59.0523438 76.2460937,59.359375 C76.0414062,59.5640625 75.734375,59.76875 75.5296875,59.9734375 C66.9328125,66.8304688 54.6515625,66.2164063 46.7710938,58.4382813 C44.621875,56.2890625 42.984375,53.8328125 41.9609375,51.0695313 C40.9375,48.5109375 40.528125,45.85 40.528125,43.1890625 C40.528125,42.165625 40.6304688,41.1421875 40.7328125,40.2210938 C40.9375,38.6859375 41.346875,37.253125 41.8585937,35.8203125 C42.7796875,32.9546875 44.4171875,30.29375 46.66875,28.0421875 Z" id="Shape"></path>
                                <path d="M124.654687,98.659375 L125.780469,96.7148438 C125.985156,96.3054688 126.0875,95.79375 125.780469,95.384375 C125.575781,94.975 125.064062,94.6679688 124.654687,94.6679688 L7.5734375,94.6679688 C7.06171875,94.6679688 6.65234375,94.975 6.44765625,95.384375 C6.24296875,95.79375 6.24296875,96.3054688 6.44765625,96.7148438 L7.5734375,98.659375 C9.51796875,101.934375 13.2023437,103.98125 16.9890625,103.98125 L115.136719,103.98125 C119.025781,103.98125 122.607812,101.934375 124.654687,98.659375 Z M8.8015625,97.840625 L7.88046875,96.203125 L124.245312,96.203125 L123.324219,97.840625 C121.584375,100.70625 118.514062,102.446094 115.136719,102.446094 L16.9890625,102.446094 C13.7140625,102.446094 10.5414063,100.70625 8.8015625,97.840625 Z" id="Shape"></path>
                                <path d="M61.5085938,34.6945312 C59.76875,35.0015625 58.3359375,36.1273437 57.3125,37.8671875 C57.2101563,37.9695313 57.2101563,38.071875 57.1078125,38.1742187 C56.1867188,37.5601563 55.3679688,37.5601563 54.6515625,37.5601563 C54.0375,37.5601563 53.628125,37.5601563 53.0140625,37.1507812 C52.7070313,36.84375 52.1953125,36.9460938 51.8882813,37.253125 C51.58125,37.5601563 51.6835938,38.071875 51.990625,38.3789062 C53.0140625,39.1976562 53.9351563,39.1976562 54.6515625,39.0953125 C55.265625,39.0953125 55.675,39.0953125 56.1867188,39.4023438 C55.4703125,40.3234375 54.7539063,41.2445312 53.9351563,42.0632813 C53.0140625,41.346875 52.0929688,41.346875 51.3765625,41.346875 C50.7625,41.346875 50.353125,41.346875 49.7390625,40.9375 C49.4320313,40.6304688 48.9203125,40.7328125 48.6132813,41.0398438 C48.30625,41.346875 48.4085938,41.8585937 48.715625,42.165625 C49.7390625,42.984375 50.6601563,42.984375 51.3765625,42.8820312 C51.8882813,42.8820312 52.2976563,42.8820312 52.809375,43.1890625 C52.7070313,43.2914062 52.6046875,43.39375 52.4,43.5984375 C50.8648438,44.9289062 50.0460938,46.5664062 50.0460938,48.30625 C50.0460938,50.2507813 51.0695313,52.0929687 53.0140625,53.628125 C54.5492188,54.9585938 56.1867188,55.5726562 57.8242188,55.5726562 C58.13125,55.5726562 58.540625,55.5726562 58.8476563,55.4703125 C60.5875,55.1632812 62.0203125,54.0375 63.04375,52.2976563 C63.1460938,52.0929687 63.2484375,51.990625 63.3507813,51.8882813 C63.6578125,52.2976563 63.7601563,52.6046875 63.8625,53.21875 C63.9648438,53.9351563 64.0671875,54.85625 65.090625,55.675 C65.1929688,55.7773438 65.3976563,55.8796875 65.6023438,55.8796875 C65.8070313,55.8796875 66.0117188,55.7773438 66.2164063,55.5726562 C66.5234375,55.265625 66.4210938,54.7539062 66.1140625,54.446875 C65.6023438,54.0375 65.5,53.5257812 65.3976563,52.9117188 C65.2953125,52.1953125 65.1929688,51.3765625 64.271875,50.5578125 C64.9882812,49.6367188 65.7046875,48.715625 66.5234375,47.896875 C66.9328125,48.30625 67.0351562,48.715625 67.1375,49.3296875 C67.2398438,50.0460937 67.3421875,50.9671875 68.365625,51.7859375 C68.4679688,51.8882813 68.6726563,51.990625 68.8773437,51.990625 C69.0820312,51.990625 69.2867188,51.8882813 69.4914063,51.6835938 C69.7984375,51.3765625 69.6960938,50.8648438 69.3890625,50.5578125 C68.8773437,50.1484375 68.775,49.6367188 68.6726563,49.0226562 C68.5703125,48.4085937 68.4679688,47.5898438 67.6492188,46.7710938 C67.7515625,46.66875 67.7515625,46.66875 67.8539063,46.5664062 C69.3890625,45.2359375 70.2078125,43.5984375 70.2078125,41.8585937 C70.2078125,40.6304688 69.7984375,39.5046875 68.9796875,38.3789062 C69.7984375,38.1742187 70.4125,37.8671875 71.0265625,37.1507812 C71.640625,36.434375 71.8453125,35.615625 71.8453125,34.6945312 C71.7429688,33.7734375 71.3335938,32.9546875 70.6171875,32.4429687 C69.184375,31.3171875 67.1375,31.521875 65.909375,32.9546875 C65.3976563,33.56875 65.090625,34.3875 65.090625,35.1039062 C63.9648438,34.5921875 62.7367188,34.4898438 61.5085938,34.6945312 Z M66.9328125,45.440625 C64.9882812,47.2828125 63.3507813,49.2273438 61.9179688,51.58125 C61.2015625,52.9117188 60.0757813,53.7304688 58.8476563,54.0375 C57.3125,54.2421875 55.7773438,53.7304688 54.2421875,52.4 L54.2421875,52.4 C52.7070313,51.171875 51.8882813,49.7390625 51.8882813,48.2039063 C51.8882813,46.8734375 52.5023438,45.6453125 53.7304688,44.621875 C55.675,42.7796875 57.3125,40.8351563 58.7453125,38.48125 C59.4617188,37.1507813 60.5875,36.2296875 61.815625,36.025 C62.0203125,36.025 62.3273438,35.9226563 62.5320313,35.9226563 C63.7601563,35.9226563 65.090625,36.434375 66.31875,37.5601563 C67.8539062,38.7882813 68.6726563,40.2210938 68.6726563,41.75625 C68.6726563,43.1890625 68.0585938,44.4171875 66.9328125,45.440625 Z M66.728125,35.3085938 C66.728125,34.796875 66.8304688,34.3875 67.1375,33.978125 C67.546875,33.56875 68.0585938,33.2617188 68.5703125,33.2617188 C68.9796875,33.2617188 69.3890625,33.3640625 69.6960938,33.6710937 C70.1054688,33.978125 70.3101563,34.3875 70.3101563,34.8992187 C70.3101563,35.4109375 70.2078125,35.8203125 69.9007813,36.2296875 L69.9007813,36.2296875 C69.4914063,36.6390625 69.0820312,36.84375 68.5703125,36.84375 C68.0585938,36.9460937 67.6492188,36.7414062 67.2398438,36.434375 L67.2398438,36.434375 L67.2398438,36.434375 C66.9328125,36.2296875 66.728125,35.8203125 66.728125,35.3085938 Z" id="Shape"></path>
                                <path d="M59.6664063,42.575 C59.2570312,42.8820312 58.8476562,43.1890625 58.540625,43.5984375 C58.3359375,43.803125 58.2335937,44.1101562 58.0289063,44.3148437 C57.8242188,44.7242187 57.9265625,45.1335937 58.3359375,45.3382812 C58.4382813,45.440625 58.6429688,45.440625 58.7453125,45.440625 C59.0523438,45.440625 59.2570312,45.3382812 59.359375,45.03125 C59.4617188,44.8265625 59.5640625,44.7242187 59.6664063,44.5195312 C59.9734375,44.2125 60.178125,44.0078125 60.4851563,43.803125 C60.7921875,43.5984375 60.8945312,43.0867187 60.6898438,42.7796875 C60.4851563,42.3703125 59.9734375,42.2679687 59.6664063,42.575 Z" id="Shape"></path>
                                <path d="M58.13125,46.8734375 C57.721875,46.8734375 57.3125,47.1804688 57.3125,47.5898438 C57.3125,48.1015625 57.2101562,48.6132812 56.8007812,49.125 C56.5960938,49.4320313 56.6984375,49.94375 57.0054688,50.1484375 C57.1078125,50.2507813 57.3125,50.2507813 57.4148438,50.2507813 C57.6195312,50.2507813 57.9265625,50.1484375 58.0289062,49.94375 C58.6429687,49.0226562 58.7453125,48.30625 58.7453125,47.6921875 C58.8476562,47.2828125 58.540625,46.8734375 58.13125,46.8734375 Z" id="Shape"></path>
                                <path d="M63.9648438,40.4257812 C63.5554688,40.9375 63.1460938,41.2445312 62.634375,41.4492188 C62.225,41.6539062 62.0203125,42.0632813 62.225,42.4726562 C62.3273438,42.7796875 62.634375,42.984375 62.9414062,42.984375 C63.04375,42.984375 63.1460938,42.984375 63.2484375,42.8820312 C63.9648438,42.575 64.5789063,42.0632813 65.1929688,41.4492188 C65.5,41.1421875 65.3976562,40.6304687 65.090625,40.3234375 C64.68125,40.0164063 64.1695313,40.11875 63.9648438,40.4257812 Z" id="Shape"></path>
                                <path d="M61.0992187,61.9179688 C61.0992187,62.3273437 61.40625,62.7367187 61.9179687,62.7367187 C72.6640625,62.7367187 81.3632812,54.0375 81.3632812,43.2914062 C81.3632812,42.8820312 81.05625,42.4726562 80.5445313,42.4726562 C80.1351562,42.4726562 79.7257812,42.7796875 79.7257812,43.2914062 C79.7257812,53.1164062 71.7429687,61.2015625 61.815625,61.2015625 C61.5085937,61.2015625 61.0992187,61.5085938 61.0992187,61.9179688 Z" id="Shape"></path>
                                <path d="M43.2914063,44.1101563 C43.7007813,44.1101563 44.1101563,43.803125 44.1101563,43.2914062 C44.1101563,33.4664062 52.0929687,25.38125 62.0203125,25.38125 C62.4296875,25.38125 62.8390625,25.0742187 62.8390625,24.5625 C62.8390625,24.153125 62.5320313,23.74375 62.0203125,23.74375 C51.2742188,23.74375 42.575,32.4429687 42.575,43.1890625 C42.4726563,43.7007812 42.7796875,44.1101563 43.2914063,44.1101563 Z" id="Shape"></path>
                                <path d="M88.2203125,58.0289062 L87.7085937,58.0289062 C87.2992187,58.0289062 86.8898437,58.3359375 86.8898437,58.8476562 C86.8898437,59.2570312 87.196875,59.6664063 87.7085937,59.6664063 L88.2203125,59.6664063 C88.6296875,59.6664063 89.0390625,59.359375 89.0390625,58.8476562 C88.9367188,58.3359375 88.6296875,58.0289062 88.2203125,58.0289062 Z" id="Shape"></path>
                                <path d="M101.525,59.5640625 C101.934375,59.5640625 102.34375,59.2570312 102.34375,58.7453125 C102.34375,58.3359375 102.036719,57.9265625 101.525,57.9265625 L101.013281,57.9265625 C100.603906,57.9265625 100.194531,58.2335937 100.194531,58.7453125 C100.194531,59.1546875 100.501562,59.5640625 101.013281,59.5640625 L101.525,59.5640625 Z" id="Shape"></path>
                                <path d="M96.9195313,58.0289062 L94.8726562,58.0289062 L94.565625,58.0289062 L94.2585937,58.0289062 L90.1648437,58.0289062 C89.7554687,58.0289062 89.3460937,58.3359375 89.3460937,58.8476562 C89.3460937,59.2570312 89.653125,59.6664063 90.1648437,59.6664063 L94.2585937,59.6664063 L94.565625,59.6664063 L94.8726562,59.6664063 L96.9195313,59.6664063 C97.3289062,59.6664063 97.7382812,59.359375 97.7382812,58.8476562 C97.6359375,58.3359375 97.3289062,58.0289062 96.9195313,58.0289062 Z" id="Shape"></path>
                                <path d="M102.855469,58.8476562 C102.855469,59.2570312 103.1625,59.6664063 103.674219,59.6664063 L105.107031,59.6664063 C105.516406,59.6664063 105.925781,59.359375 105.925781,58.8476562 C105.925781,58.4382813 105.61875,58.0289062 105.107031,58.0289062 L103.674219,58.0289062 C103.1625,58.0289062 102.855469,58.3359375 102.855469,58.8476562 Z" id="Shape"></path>
                                <path d="M107.25625,69.2867188 L108.791406,69.2867188 C109.200781,69.2867188 109.610156,68.9796875 109.610156,68.4679688 C109.610156,68.0585938 109.303125,67.6492188 108.791406,67.6492188 L107.25625,67.6492188 C106.846875,67.6492188 106.4375,67.95625 106.4375,68.4679688 C106.539844,68.8773437 106.846875,69.2867188 107.25625,69.2867188 Z" id="Shape"></path>
                                <path d="M102.139063,67.7515625 L100.092187,67.7515625 C99.6828125,67.7515625 99.2734375,68.0585938 99.2734375,68.5703125 C99.2734375,68.9796875 99.5804687,69.3890625 100.092187,69.3890625 L102.139063,69.3890625 C102.548438,69.3890625 102.957813,69.0820312 102.957813,68.5703125 C102.957813,68.0585938 102.548438,67.7515625 102.139063,67.7515625 Z" id="Shape"></path>
                                <path d="M45.3382812,64.3742187 L46.3617188,64.3742187 C46.7710938,64.3742187 47.1804688,64.0671875 47.1804688,63.5554688 C47.1804688,63.1460938 46.8734375,62.7367188 46.3617188,62.7367188 L45.3382812,62.7367188 C44.9289062,62.7367188 44.5195312,63.04375 44.5195312,63.5554688 C44.621875,64.0671875 44.9289062,64.3742187 45.3382812,64.3742187 Z" id="Shape"></path>
                                <path d="M36.1273437,64.3742187 L38.1742187,64.3742187 C38.3789062,64.3742187 38.5835938,64.271875 38.6859375,64.1695313 C38.7882812,64.271875 38.9929688,64.3742187 39.1976562,64.3742187 L43.2914062,64.3742187 C43.7007813,64.3742187 44.1101563,64.0671875 44.1101563,63.5554688 C44.1101563,63.1460938 43.803125,62.7367188 43.2914062,62.7367188 L39.1976562,62.7367188 C38.9929688,62.7367188 38.7882812,62.8390625 38.6859375,62.9414063 C38.5835938,62.8390625 38.3789062,62.7367188 38.1742187,62.7367188 L36.1273437,62.7367188 C35.7179687,62.7367188 35.3085938,63.04375 35.3085938,63.5554688 C35.4109375,64.0671875 35.7179687,64.3742187 36.1273437,64.3742187 Z" id="Shape"></path>
                                <path d="M31.0101563,64.3742187 L32.0335938,64.3742187 C32.4429687,64.3742187 32.8523438,64.0671875 32.8523438,63.5554688 C32.8523438,63.1460938 32.5453125,62.7367188 32.0335938,62.7367188 L31.0101563,62.7367188 C30.6007812,62.7367188 30.1914062,63.04375 30.1914062,63.5554688 C30.1914062,64.0671875 30.6007812,64.3742187 31.0101563,64.3742187 Z" id="Shape"></path>
                                <path d="M24.8695313,64.3742187 L28.9632812,64.3742187 C29.3726562,64.3742187 29.7820312,64.0671875 29.7820312,63.5554688 C29.7820312,63.1460938 29.475,62.7367188 28.9632812,62.7367188 L24.8695313,62.7367188 C24.4601562,62.7367188 24.0507812,63.04375 24.0507812,63.5554688 C24.0507812,64.0671875 24.4601562,64.3742187 24.8695313,64.3742187 Z" id="Shape"></path>
                                <path d="M84.4335937,77.371875 L83.4101562,77.371875 C83.0007812,77.371875 82.5914063,77.6789063 82.5914063,78.190625 C82.5914063,78.7023438 82.8984375,79.009375 83.4101562,79.009375 L84.4335937,79.009375 C84.8429687,79.009375 85.2523437,78.7023438 85.2523437,78.190625 C85.2523437,77.6789063 84.9453125,77.371875 84.4335937,77.371875 Z" id="Shape"></path>
                                <path d="M78.2929687,77.371875 L77.2695312,77.371875 C76.8601562,77.371875 76.4507813,77.6789063 76.4507813,78.190625 C76.4507813,78.7023438 76.7578125,79.009375 77.2695312,79.009375 L78.2929687,79.009375 C78.7023437,79.009375 79.1117187,78.7023438 79.1117187,78.190625 C79.1117187,77.6789063 78.7023437,77.371875 78.2929687,77.371875 Z" id="Shape"></path>
                                <path d="M28.9632812,77.371875 L27.9398438,77.371875 C27.5304687,77.371875 27.1210938,77.6789063 27.1210938,78.190625 C27.1210938,78.7023438 27.428125,79.009375 27.9398438,79.009375 L28.9632812,79.009375 C29.3726562,79.009375 29.7820312,78.7023438 29.7820312,78.190625 C29.7820312,77.6789063 29.3726562,77.371875 28.9632812,77.371875 Z" id="Shape"></path>
                                <path d="M35.1039063,77.371875 L34.0804687,77.371875 C33.6710937,77.371875 33.2617188,77.6789063 33.2617188,78.190625 C33.2617188,78.7023438 33.56875,79.009375 34.0804687,79.009375 L35.1039063,79.009375 C35.5132813,79.009375 35.9226563,78.7023438 35.9226563,78.190625 C35.9226563,77.6789063 35.615625,77.371875 35.1039063,77.371875 Z" id="Shape"></path>
                                <path d="M53.628125,77.371875 L52.6046875,77.371875 C52.1953125,77.371875 51.7859375,77.6789063 51.7859375,78.190625 C51.7859375,78.7023438 52.0929687,79.009375 52.6046875,79.009375 L53.628125,79.009375 C54.0375,79.009375 54.446875,78.7023438 54.446875,78.190625 C54.446875,77.6789063 54.0375,77.371875 53.628125,77.371875 Z" id="Shape"></path>
                                <path d="M47.4875,77.371875 L46.4640625,77.371875 C46.0546875,77.371875 45.6453125,77.6789063 45.6453125,78.190625 C45.6453125,78.7023438 45.9523437,79.009375 46.4640625,79.009375 L47.4875,79.009375 C47.896875,79.009375 48.30625,78.7023438 48.30625,78.190625 C48.30625,77.6789063 47.896875,77.371875 47.4875,77.371875 Z" id="Shape"></path>
                                <path d="M72.1523437,77.371875 L71.1289062,77.371875 C70.7195312,77.371875 70.3101563,77.6789063 70.3101563,78.190625 C70.3101563,78.7023438 70.6171875,79.009375 71.1289062,79.009375 L72.1523437,79.009375 C72.5617187,79.009375 72.9710937,78.7023438 72.9710937,78.190625 C72.9710937,77.6789063 72.5617187,77.371875 72.1523437,77.371875 Z" id="Shape"></path>
                                <path d="M41.346875,77.371875 L40.3234375,77.371875 C39.9140625,77.371875 39.5046875,77.6789063 39.5046875,78.190625 C39.5046875,78.7023438 39.8117187,79.009375 40.3234375,79.009375 L41.346875,79.009375 C41.75625,79.009375 42.165625,78.7023438 42.165625,78.190625 C42.165625,77.6789063 41.75625,77.371875 41.346875,77.371875 Z" id="Shape"></path>
                                <path d="M59.76875,77.371875 L58.7453125,77.371875 C58.3359375,77.371875 57.9265625,77.6789063 57.9265625,78.190625 C57.9265625,78.7023438 58.2335937,79.009375 58.7453125,79.009375 L59.76875,79.009375 C60.178125,79.009375 60.5875,78.7023438 60.5875,78.190625 C60.5875,77.6789063 60.2804687,77.371875 59.76875,77.371875 Z" id="Shape"></path>
                                <path d="M66.0117187,77.371875 L64.9882812,77.371875 C64.5789062,77.371875 64.1695312,77.6789063 64.1695312,78.190625 C64.1695312,78.7023438 64.4765625,79.009375 64.9882812,79.009375 L66.0117187,79.009375 C66.4210937,79.009375 66.8304687,78.7023438 66.8304687,78.190625 C66.8304687,77.6789063 66.4210937,77.371875 66.0117187,77.371875 Z" id="Shape"></path>
                            </g>
                        </g>
                    </g>
                </g>
            </g>
        </g>
    </g>
</svg>