<?xml version="1.0" encoding="UTF-8"?>
<svg width="700px" height="332px" viewBox="0 0 700 332" version="1.1" xmlns="http://www.w3.org/2000/svg" xmlns:xlink="http://www.w3.org/1999/xlink">
    <!-- Generator: Sketch 45.2 (43514) - http://www.bohemiancoding.com/sketch -->
    <title>DTT</title>
    <desc>Created with Sketch.</desc>
    <defs></defs>
    <g id="Page-1" stroke="none" stroke-width="1" fill="none" fill-rule="evenodd">
        <g id="DTT" fill="#0F0F2A">
            <path d="M0,331.283422 L92.126738,331.283422 C114.425045,331.283422 135.503654,327.544474 155.371925,320.053476 C175.233333,312.57246 192.644742,301.799198 207.621123,287.744296 C220.659715,275.50303 231.379323,261.052585 239.786809,244.40107 L203.947683,244.40107 C198.715152,252.346257 192.743316,259.592068 185.85,265.974421 C173.473975,277.431462 158.959269,286.218271 142.310873,292.32549 C125.651248,298.442068 107.859893,301.491622 88.9124777,301.491622 L31.6229055,301.491622 L31.6229055,180.002317 L0,180.002317 L0,331.283422" id="Fill-1"></path>
            <path d="M247.037611,111.519608 C240.617201,91.8110517 230.228253,74.0165775 215.869519,58.1243316 C201.503298,42.2414439 182.872816,29.2490196 159.953119,19.1663993 C137.039661,9.08377897 109.078342,4.04215686 76.0822638,4.04215686 L64.3975045,4.04215686 L64.3975045,34.2937611 L85.7050802,34.2937611 C107.089394,34.2937611 126.341889,37.7282531 143.454456,44.6034759 C160.562656,51.4793226 175.233333,60.8750446 187.454635,72.7918895 C199.669697,84.7087344 209.069162,98.8447415 215.638681,115.18369 C222.210695,131.536364 225.492335,149.181729 225.492335,168.122282 C225.492335,172.173173 225.317647,176.116132 225.051248,180.002941 L256.390909,180.002941 C256.559358,176.696346 256.661052,173.352941 256.661052,169.953387 C256.661052,150.704635 253.45303,131.225668 247.037611,111.519608" id="Fill-2"></path>
            <polyline id="Fill-3" points="367.535561 29.9490196 454.632531 29.9490196 454.632531 0.150356506 249.722193 0.150356506 249.722193 29.9490196 335.89893 29.9490196 335.89893 180.003565 367.535561 180.003565 367.535561 29.9490196"></polyline>
            <polygon id="Fill-4" points="335.89893 327.465241 367.535561 327.465241 367.535561 244.40107 335.89893 244.40107"></polygon>
            <polyline id="Fill-5" points="699.78164 29.9490196 699.78164 0.150356506 494.868182 0.150356506 494.868182 29.9490196 581.046168 29.9490196 581.046168 180.003565 612.682175 180.003565 612.682175 29.9490196 699.78164 29.9490196"></polyline>
            <polygon id="Fill-6" points="581.046168 327.465241 612.682175 327.465241 612.682175 244.40107 581.046168 244.40107"></polygon>
        </g>
    </g>
</svg>