<?xml version="1.0" encoding="UTF-8"?>
<svg width="128px" height="116px" viewBox="0 0 128 116" version="1.1" xmlns="http://www.w3.org/2000/svg" xmlns:xlink="http://www.w3.org/1999/xlink">
    <!-- Generator: Sketch 42 (36781) - http://www.bohemiancoding.com/sketch -->
    <title>noun_750008_cc</title>
    <desc>Created with Sketch.</desc>
    <defs></defs>
    <g id="Page-1" stroke="none" stroke-width="1" fill="none" fill-rule="evenodd">
        <g id="noun_750008_cc" fill-rule="nonzero" fill="#000000">
            <g id="Group">
                <path d="M92.2,13 C92.3,13.1 92.5,13.2 92.7,13.2 C92.9,13.2 93.1,13.1 93.2,13 C93.5,12.7 93.5,12.2 93.2,11.9 L91.6,10.3 C91.3,10 90.8,10 90.5,10.3 C90.2,10.6 90.2,11.1 90.5,11.4 L92.2,13 Z" id="Shape"></path>
                <path d="M97.4,18.2 C97.5,18.3 97.7,18.4 97.9,18.4 C98.1,18.4 98.3,18.3 98.4,18.2 C98.7,17.9 98.7,17.4 98.4,17.1 L96.8,15.5 C96.5,15.2 96,15.2 95.7,15.5 C95.4,15.8 95.4,16.3 95.7,16.6 L97.4,18.2 Z" id="Shape"></path>
                <path d="M91.1,18.4 C91.3,18.4 91.5,18.3 91.6,18.2 L93.2,16.6 C93.5,16.3 93.5,15.8 93.2,15.5 C92.9,15.2 92.4,15.2 92.1,15.5 L90.5,17.1 C90.2,17.4 90.2,17.9 90.5,18.2 C90.7,18.4 90.9,18.4 91.1,18.4 Z" id="Shape"></path>
                <path d="M96.3,13.2 C96.5,13.2 96.7,13.1 96.8,13 L98.4,11.4 C98.7,11.1 98.7,10.6 98.4,10.3 C98.1,10 97.6,10 97.3,10.3 L95.8,12 C95.5,12.3 95.5,12.8 95.8,13.1 C95.9,13.2 96.1,13.2 96.3,13.2 Z" id="Shape"></path>
                <path d="M1.8,106.3 C1.5,106 1,106 0.7,106.3 C0.4,106.6 0.4,107.1 0.7,107.4 L2.3,109 C2.4,109.1 2.6,109.2 2.8,109.2 C3,109.2 3.2,109.1 3.3,109 C3.6,108.7 3.6,108.2 3.3,107.9 L1.8,106.3 Z" id="Shape"></path>
                <path d="M7,111.5 C6.7,111.2 6.2,111.2 5.9,111.5 C5.6,111.8 5.6,112.3 5.9,112.6 L7.5,114.2 C7.6,114.3 7.8,114.4 8,114.4 C8.2,114.4 8.4,114.3 8.5,114.2 C8.8,113.9 8.8,113.4 8.5,113.1 L7,111.5 Z" id="Shape"></path>
                <path d="M2.3,111.5 L0.7,113.1 C0.4,113.4 0.4,113.9 0.7,114.2 C0.8,114.3 1,114.4 1.2,114.4 C1.4,114.4 1.6,114.3 1.7,114.2 L3.3,112.6 C3.6,112.3 3.6,111.8 3.3,111.5 C3.1,111.2 2.6,111.2 2.3,111.5 Z" id="Shape"></path>
                <path d="M7.5,106.3 L5.9,107.9 C5.6,108.2 5.6,108.7 5.9,109 C6,109.1 6.2,109.2 6.4,109.2 C6.6,109.2 6.8,109.1 6.9,109 L8.5,107.4 C8.8,107.1 8.8,106.6 8.5,106.3 C8.3,106 7.8,106 7.5,106.3 Z" id="Shape"></path>
                <path d="M117.8,58.3 C117.5,58.6 117.5,59.1 117.8,59.4 L119.4,61 C119.5,61.1 119.7,61.2 119.9,61.2 C120.1,61.2 120.3,61.1 120.4,61 C120.7,60.7 120.7,60.2 120.4,59.9 L118.8,58.3 C118.6,58 118.1,58 117.8,58.3 Z" id="Shape"></path>
                <path d="M124.6,66.1 C124.7,66.2 124.9,66.3 125.1,66.3 C125.3,66.3 125.5,66.2 125.6,66.1 C125.9,65.8 125.9,65.3 125.6,65 L124,63.4 C123.7,63.1 123.2,63.1 122.9,63.4 C122.6,63.7 122.6,64.2 122.9,64.5 L124.6,66.1 Z" id="Shape"></path>
                <path d="M119.4,63.5 L117.8,65.1 C117.5,65.4 117.5,65.9 117.8,66.2 C117.9,66.3 118.1,66.4 118.3,66.4 C118.5,66.4 118.7,66.3 118.8,66.2 L120.4,64.6 C120.7,64.3 120.7,63.8 120.4,63.5 C120.2,63.2 119.7,63.2 119.4,63.5 Z" id="Shape"></path>
                <path d="M123.6,61.1 C123.8,61.1 124,61 124.1,60.9 L125.7,59.3 C126,59 126,58.5 125.7,58.2 C125.4,57.9 124.9,57.9 124.6,58.2 L123,59.8 C122.7,60.1 122.7,60.6 123,60.9 C123.2,61.1 123.4,61.1 123.6,61.1 Z" id="Shape"></path>
                <path d="M4.7,34.7 C5.1,34.7 5.5,34.4 5.5,33.9 L5.5,22.2 C5.5,21.8 5.2,21.4 4.7,21.4 C4.3,21.4 3.9,21.7 3.9,22.2 L3.9,34 C3.9,34.4 4.2,34.7 4.7,34.7 Z" id="Shape"></path>
                <path d="M4.7,44.5 C5.1,44.5 5.5,44.2 5.5,43.7 L5.5,39.5 C5.5,39.1 5.2,38.7 4.7,38.7 C4.3,38.7 3.9,39 3.9,39.5 L3.9,43.7 C3.9,44.1 4.2,44.5 4.7,44.5 Z" id="Shape"></path>
                <path d="M117.8,14.3 C118.2,14.3 118.6,14 118.6,13.5 L118.6,1.7 C118.6,1.3 118.3,0.9 117.8,0.9 C117.4,0.9 117,1.2 117,1.7 L117,13.5 C117.1,13.9 117.4,14.3 117.8,14.3 Z" id="Shape"></path>
                <path d="M117.8,24 C118.2,24 118.6,23.7 118.6,23.2 L118.6,19 C118.6,18.6 118.3,18.2 117.8,18.2 C117.4,18.2 117,18.5 117,19 L117,23.2 C117.1,23.7 117.4,24 117.8,24 Z" id="Shape"></path>
                <path d="M56.8,15 C58.7,15 60.3,13.4 60.3,11.5 C60.3,9.6 58.7,8 56.8,8 C54.9,8 53.3,9.6 53.3,11.5 C53.3,13.5 54.8,15 56.8,15 Z M56.8,9.5 C57.9,9.5 58.8,10.4 58.8,11.5 C58.8,12.6 57.9,13.5 56.8,13.5 C55.7,13.5 54.8,12.6 54.8,11.5 C54.8,10.4 55.7,9.5 56.8,9.5 Z" id="Shape"></path>
                <path d="M48.7,105.5 C46.8,105.5 45.2,107.1 45.2,109 C45.2,110.9 46.8,112.5 48.7,112.5 C50.6,112.5 52.2,110.9 52.2,109 C52.2,107.1 50.6,105.5 48.7,105.5 Z M48.7,111 C47.6,111 46.7,110.1 46.7,109 C46.7,107.9 47.6,107 48.7,107 C49.8,107 50.7,107.9 50.7,109 C50.7,110.1 49.8,111 48.7,111 Z" id="Shape"></path>
                <path d="M8.2,75.2 C8.2,73.3 6.6,71.7 4.7,71.7 C2.8,71.7 1.2,73.3 1.2,75.2 C1.2,77.1 2.8,78.7 4.7,78.7 C6.6,78.7 8.2,77.1 8.2,75.2 Z M4.7,77.2 C3.6,77.2 2.7,76.3 2.7,75.2 C2.7,74.1 3.6,73.2 4.7,73.2 C5.8,73.2 6.7,74.1 6.7,75.2 C6.7,76.3 5.8,77.2 4.7,77.2 Z" id="Shape"></path>
                <path d="M18.1,7 C18.1,7.4 18.4,7.8 18.9,7.8 L34.3,7.8 C34.7,7.8 35.1,7.5 35.1,7 C35.1,6.5 34.8,6.2 34.3,6.2 L18.8,6.2 C18.4,6.2 18.1,6.6 18.1,7 Z" id="Shape"></path>
                <path d="M8.8,7.7 L13.8,7.7 C14.2,7.7 14.6,7.4 14.6,6.9 C14.6,6.4 14.3,6.1 13.8,6.1 L8.8,6.1 C8.4,6.2 8,6.6 8,7 C8,7.4 8.4,7.7 8.8,7.7 Z" id="Shape"></path>
                <path d="M8.8,2.5 L19.6,2.5 C20,2.5 20.4,2.2 20.4,1.7 C20.4,1.2 20,0.9 19.5,0.9 L8.8,0.9 C8.4,0.9 8,1.3 8,1.7 C8,2.1 8.4,2.5 8.8,2.5 Z" id="Shape"></path>
                <path d="M24.2,2.5 L27.7,2.5 C28.1,2.5 28.5,2.2 28.5,1.7 C28.5,1.2 28.2,0.9 27.7,0.9 L24.2,0.9 C23.8,0.9 23.4,1.2 23.4,1.7 C23.4,2.2 23.8,2.5 24.2,2.5 Z" id="Shape"></path>
                <path d="M117.4,109 C117.4,108.6 117.1,108.2 116.6,108.2 L101.2,108.2 C100.8,108.2 100.4,108.5 100.4,109 C100.4,109.4 100.7,109.8 101.2,109.8 L116.6,109.8 C117.1,109.8 117.4,109.4 117.4,109 Z" id="Shape"></path>
                <path d="M121,109 C121,109.4 121.3,109.8 121.8,109.8 L126.8,109.8 C127.2,109.8 127.6,109.5 127.6,109 C127.6,108.6 127.3,108.2 126.8,108.2 L121.8,108.2 C121.3,108.3 121,108.6 121,109 Z" id="Shape"></path>
                <path d="M126.7,113.5 L116,113.5 C115.6,113.5 115.2,113.8 115.2,114.3 C115.2,114.8 115.5,115.1 116,115.1 L126.8,115.1 C127.2,115.1 127.6,114.8 127.6,114.3 C127.6,113.8 127.2,113.5 126.7,113.5 Z" id="Shape"></path>
                <path d="M111.4,113.5 L107.9,113.5 C107.5,113.5 107.1,113.8 107.1,114.3 C107.1,114.8 107.4,115.1 107.9,115.1 L111.4,115.1 C111.8,115.1 112.2,114.8 112.2,114.3 C112.2,113.8 111.8,113.5 111.4,113.5 Z" id="Shape"></path>
                <path d="M21.5,32.2 C18.6,32.2 16.2,34.6 16.2,37.5 L16.2,88.7 C16.2,89.1 16.5,89.5 17,89.5 L112.3,89.5 C112.7,89.5 113.1,89.2 113.1,88.7 L113.1,37.5 C113.1,34.6 110.7,32.2 107.8,32.2 L80.8,32.2 C79.7,30 78.3,28.1 76.6,26.3 C72.3,22 66.7,19.7 60.6,19.7 C54.6,19.7 48.9,22 44.6,26.3 C42.9,28 41.4,30 40.4,32.2 L21.5,32.2 Z M107.6,33.7 C109.7,33.7 111.4,35.4 111.4,37.5 L111.4,88 L17.7,88 L17.7,37.5 C17.7,35.4 19.4,33.7 21.5,33.7 L39.6,33.7 C39.5,34 39.4,34.2 39.3,34.5 C38.8,35.9 38.4,37.5 38.1,39.1 C38,40.1 37.9,41.1 37.9,42.2 L37.9,42.2 C37.9,43.9 38.1,45.6 38.5,47.2 L23.6,47.2 C23.2,47.2 22.8,47.5 22.8,48 C22.8,48.5 23.1,48.8 23.6,48.8 L38.9,48.8 C39.1,49.4 39.3,50 39.5,50.5 C39.7,51 39.9,51.5 40.2,52 L32.9,52 L23.7,52 C23.3,52 22.9,52.3 22.9,52.8 C22.9,53.3 23.2,53.6 23.7,53.6 L32.9,53.6 L41,53.6 C41.6,54.7 42.4,55.8 43.2,56.8 L23.6,56.8 C23.2,56.8 22.8,57.1 22.8,57.6 C22.8,58 23.1,58.4 23.6,58.4 L44.5,58.4 L44.5,58.4 C45.8,59.7 47.3,60.8 48.8,61.8 C48.6,61.9 48.5,62.1 48.5,62.4 C48.5,62.8 48.8,63.2 49.3,63.2 L51.3,63.2 L51.3,63.2 C54.2,64.5 57.3,65.1 60.4,65.1 C65.1,65.1 69.9,63.6 73.9,60.6 L78.8,66.4 L23.6,66.4 C23.2,66.4 22.8,66.7 22.8,67.2 C22.8,67.6 23.1,68 23.6,68 L80.1,68 L80.2,68 L82.9,71.2 L23.6,71.2 C23.2,71.2 22.8,71.5 22.8,72 C22.8,72.4 23.1,72.8 23.6,72.8 L84.2,72.8 L87.1,76.2 C86.9,76.3 86.8,76.5 86.8,76.8 C86.8,77.2 87.1,77.6 87.6,77.6 L88.3,77.6 L93,83.2 C93.6,83.9 94.4,84.3 95.2,84.3 L95.3,84.3 C96.1,84.3 96.9,84 97.5,83.4 L101.1,79.8 C101.7,79.2 102,78.4 102,77.5 C102,76.6 101.6,75.8 100.9,75.3 L92.5,68.2 L92.7,68.2 C93.1,68.2 93.5,67.9 93.5,67.4 C93.5,67 93.2,66.6 92.7,66.6 L90.7,66.6 L90.7,66.6 L86.9,63.4 L97.9,63.4 C98.3,63.4 98.7,63.1 98.7,62.6 C98.7,62.2 98.4,61.8 97.9,61.8 L85.2,61.8 L81.4,58.6 L81.7,58.6 C82.1,58.6 82.5,58.3 82.5,57.8 C82.5,57.4 82.2,57 81.7,57 L79.7,57 C79.7,57 79.7,57 79.6,57 L78.5,56.1 C79.1,55.3 79.6,54.6 80.1,53.8 L92.1,53.8 C92.5,53.8 92.9,53.5 92.9,53 C92.9,52.5 92.5,52 92.1,52 L80.9,52 C81.1,51.5 81.3,51 81.5,50.5 C81.7,49.9 81.9,49.3 82.1,48.8 L101.2,48.8 C101.6,48.8 102,48.5 102,48 C102,47.5 101.7,47.2 101.2,47.2 L82.5,47.2 C82.9,45.6 83.1,43.9 83.1,42.2 C83.1,41.1 83,40.1 82.9,39.1 C82.7,37.5 82.3,36 81.7,34.5 C81.6,34.2 81.5,34 81.4,33.7 L107.6,33.7 Z M76.4,58.2 C76.8,57.8 77.1,57.5 77.4,57.1 L77.5,57 L99.8,75.9 C100.1,76.2 100.3,76.6 100.4,77 C100.4,77.4 100.3,77.9 99.9,78.2 L96.3,81.8 C96,82.1 95.6,82.3 95.1,82.3 C94.7,82.3 94.3,82.1 94,81.7 L94,81.7 L75.2,59.4 L75.3,59.3 C75.7,59 76.1,58.6 76.4,58.2 Z M45.6,27.4 C49.6,23.4 54.9,21.2 60.5,21.2 C66.1,21.2 71.4,23.4 75.4,27.4 C77.6,29.6 79.2,32.1 80.3,35 C80.8,36.4 81.2,37.8 81.4,39.3 C81.5,40.2 81.6,41.2 81.6,42.2 C81.6,44.9 81.1,47.5 80.2,49.9 C79.4,51.9 78.4,53.8 77,55.4 C76.6,55.9 76.2,56.3 75.8,56.8 C75.7,56.9 75.6,57 75.5,57.1 C75.2,57.4 74.8,57.7 74.5,58 C74.3,58.2 74,58.4 73.8,58.6 C65.4,65.3 53.4,64.7 45.7,57.1 C43.6,55 42,52.6 41,49.9 C40,47.4 39.6,44.8 39.6,42.2 C39.6,41.2 39.7,40.2 39.8,39.3 C40,37.8 40.4,36.4 40.9,35 C41.8,32.2 43.4,29.6 45.6,27.4 Z" id="Shape"></path>
                <path d="M121.8,96.4 L122.9,94.5 C123.1,94.1 123.2,93.6 122.9,93.2 C122.7,92.8 122.2,92.5 121.8,92.5 L7.4,92.5 C6.9,92.5 6.5,92.8 6.3,93.2 C6.1,93.6 6.1,94.1 6.3,94.5 L7.4,96.4 C9.3,99.6 12.9,101.6 16.6,101.6 L112.5,101.6 C116.3,101.6 119.8,99.6 121.8,96.4 Z M8.6,95.6 L7.7,94 L121.4,94 L120.5,95.6 C118.8,98.4 115.8,100.1 112.5,100.1 L16.6,100.1 C13.4,100.1 10.3,98.4 8.6,95.6 Z" id="Shape"></path>
                <path d="M60.1,33.9 C58.4,34.2 57,35.3 56,37 C55.9,37.1 55.9,37.2 55.8,37.3 C54.9,36.7 54.1,36.7 53.4,36.7 C52.8,36.7 52.4,36.7 51.8,36.3 C51.5,36 51,36.1 50.7,36.4 C50.4,36.7 50.5,37.2 50.8,37.5 C51.8,38.3 52.7,38.3 53.4,38.2 C54,38.2 54.4,38.2 54.9,38.5 C54.2,39.4 53.5,40.3 52.7,41.1 C51.8,40.4 50.9,40.4 50.2,40.4 C49.6,40.4 49.2,40.4 48.6,40 C48.3,39.7 47.8,39.8 47.5,40.1 C47.2,40.4 47.3,40.9 47.6,41.2 C48.6,42 49.5,42 50.2,41.9 C50.7,41.9 51.1,41.9 51.6,42.2 C51.5,42.3 51.4,42.4 51.2,42.6 C49.7,43.9 48.9,45.5 48.9,47.2 C48.9,49.1 49.9,50.9 51.8,52.4 C53.3,53.7 54.9,54.3 56.5,54.3 C56.8,54.3 57.2,54.3 57.5,54.2 C59.2,53.9 60.6,52.8 61.6,51.1 C61.7,50.9 61.8,50.8 61.9,50.7 C62.2,51.1 62.3,51.4 62.4,52 C62.5,52.7 62.6,53.6 63.6,54.4 C63.7,54.5 63.9,54.6 64.1,54.6 C64.3,54.6 64.5,54.5 64.7,54.3 C65,54 64.9,53.5 64.6,53.2 C64.1,52.8 64,52.3 63.9,51.7 C63.8,51 63.7,50.2 62.8,49.4 C63.5,48.5 64.2,47.6 65,46.8 C65.4,47.2 65.5,47.6 65.6,48.2 C65.7,48.9 65.8,49.8 66.8,50.6 C66.9,50.7 67.1,50.8 67.3,50.8 C67.5,50.8 67.7,50.7 67.9,50.5 C68.2,50.2 68.1,49.7 67.8,49.4 C67.3,49 67.2,48.5 67.1,47.9 C67,47.3 66.9,46.5 66.1,45.7 C66.2,45.6 66.2,45.6 66.3,45.5 C67.8,44.2 68.6,42.6 68.6,40.9 C68.6,39.7 68.2,38.6 67.4,37.5 C68.2,37.3 68.8,37 69.4,36.3 C70,35.6 70.2,34.8 70.2,33.9 C70.1,33 69.7,32.2 69,31.7 C67.6,30.6 65.6,30.8 64.4,32.2 C63.9,32.8 63.6,33.6 63.6,34.3 C62.5,33.8 61.3,33.7 60.1,33.9 Z M65.4,44.4 C63.5,46.2 61.9,48.1 60.5,50.4 C59.8,51.7 58.7,52.5 57.5,52.8 C56,53 54.5,52.5 53,51.2 L53,51.2 C51.5,50 50.7,48.6 50.7,47.1 C50.7,45.8 51.3,44.6 52.5,43.6 C54.4,41.8 56,39.9 57.4,37.6 C58.1,36.3 59.2,35.4 60.4,35.2 C60.6,35.2 60.9,35.1 61.1,35.1 C62.3,35.1 63.6,35.6 64.8,36.7 C66.3,37.9 67.1,39.3 67.1,40.8 C67.1,42.2 66.5,43.4 65.4,44.4 Z M65.2,34.5 C65.2,34 65.3,33.6 65.6,33.2 C66,32.8 66.5,32.5 67,32.5 C67.4,32.5 67.8,32.6 68.1,32.9 C68.5,33.2 68.7,33.6 68.7,34.1 C68.7,34.6 68.6,35 68.3,35.4 L68.3,35.4 C67.9,35.8 67.5,36 67,36 C66.5,36.1 66.1,35.9 65.7,35.6 L65.7,35.6 L65.7,35.6 C65.4,35.4 65.2,35 65.2,34.5 Z" id="Shape"></path>
                <path d="M58.3,41.6 C57.9,41.9 57.5,42.2 57.2,42.6 C57,42.8 56.9,43.1 56.7,43.3 C56.5,43.7 56.6,44.1 57,44.3 C57.1,44.4 57.3,44.4 57.4,44.4 C57.7,44.4 57.9,44.3 58,44 C58.1,43.8 58.2,43.7 58.3,43.5 C58.6,43.2 58.8,43 59.1,42.8 C59.4,42.6 59.5,42.1 59.3,41.8 C59.1,41.4 58.6,41.3 58.3,41.6 Z" id="Shape"></path>
                <path d="M56.8,45.8 C56.4,45.8 56,46.1 56,46.5 C56,47 55.9,47.5 55.5,48 C55.3,48.3 55.4,48.8 55.7,49 C55.8,49.1 56,49.1 56.1,49.1 C56.3,49.1 56.6,49 56.7,48.8 C57.3,47.9 57.4,47.2 57.4,46.6 C57.5,46.2 57.2,45.8 56.8,45.8 Z" id="Shape"></path>
                <path d="M62.5,39.5 C62.1,40 61.7,40.3 61.2,40.5 C60.8,40.7 60.6,41.1 60.8,41.5 C60.9,41.8 61.2,42 61.5,42 C61.6,42 61.7,42 61.8,41.9 C62.5,41.6 63.1,41.1 63.7,40.5 C64,40.2 63.9,39.7 63.6,39.4 C63.2,39.1 62.7,39.2 62.5,39.5 Z" id="Shape"></path>
                <path d="M59.7,60.5 C59.7,60.9 60,61.3 60.5,61.3 C71,61.3 79.5,52.8 79.5,42.3 C79.5,41.9 79.2,41.5 78.7,41.5 C78.3,41.5 77.9,41.8 77.9,42.3 C77.9,51.9 70.1,59.8 60.4,59.8 C60.1,59.8 59.7,60.1 59.7,60.5 Z" id="Shape"></path>
                <path d="M42.3,43.1 C42.7,43.1 43.1,42.8 43.1,42.3 C43.1,32.7 50.9,24.8 60.6,24.8 C61,24.8 61.4,24.5 61.4,24 C61.4,23.6 61.1,23.2 60.6,23.2 C50.1,23.2 41.6,31.7 41.6,42.2 C41.5,42.7 41.8,43.1 42.3,43.1 Z" id="Shape"></path>
                <path d="M86.2,56.7 L85.7,56.7 C85.3,56.7 84.9,57 84.9,57.5 C84.9,57.9 85.2,58.3 85.7,58.3 L86.2,58.3 C86.6,58.3 87,58 87,57.5 C86.9,57 86.6,56.7 86.2,56.7 Z" id="Shape"></path>
                <path d="M99.2,58.2 C99.6,58.2 100,57.9 100,57.4 C100,57 99.7,56.6 99.2,56.6 L98.7,56.6 C98.3,56.6 97.9,56.9 97.9,57.4 C97.9,57.8 98.2,58.2 98.7,58.2 L99.2,58.2 Z" id="Shape"></path>
                <path d="M94.7,56.7 L92.7,56.7 L92.4,56.7 L92.1,56.7 L88.1,56.7 C87.7,56.7 87.3,57 87.3,57.5 C87.3,57.9 87.6,58.3 88.1,58.3 L92.1,58.3 L92.4,58.3 L92.7,58.3 L94.7,58.3 C95.1,58.3 95.5,58 95.5,57.5 C95.4,57 95.1,56.7 94.7,56.7 Z" id="Shape"></path>
                <path d="M100.5,57.5 C100.5,57.9 100.8,58.3 101.3,58.3 L102.7,58.3 C103.1,58.3 103.5,58 103.5,57.5 C103.5,57.1 103.2,56.7 102.7,56.7 L101.3,56.7 C100.8,56.7 100.5,57 100.5,57.5 Z" id="Shape"></path>
                <path d="M104.8,67.7 L106.3,67.7 C106.7,67.7 107.1,67.4 107.1,66.9 C107.1,66.5 106.8,66.1 106.3,66.1 L104.8,66.1 C104.4,66.1 104,66.4 104,66.9 C104.1,67.3 104.4,67.7 104.8,67.7 Z" id="Shape"></path>
                <path d="M99.8,66.2 L97.8,66.2 C97.4,66.2 97,66.5 97,67 C97,67.4 97.3,67.8 97.8,67.8 L99.8,67.8 C100.2,67.8 100.6,67.5 100.6,67 C100.6,66.5 100.2,66.2 99.8,66.2 Z" id="Shape"></path>
                <path d="M44.3,62.9 L45.3,62.9 C45.7,62.9 46.1,62.6 46.1,62.1 C46.1,61.7 45.8,61.3 45.3,61.3 L44.3,61.3 C43.9,61.3 43.5,61.6 43.5,62.1 C43.6,62.6 43.9,62.9 44.3,62.9 Z" id="Shape"></path>
                <path d="M35.3,62.9 L37.3,62.9 C37.5,62.9 37.7,62.8 37.8,62.7 C37.9,62.8 38.1,62.9 38.3,62.9 L42.3,62.9 C42.7,62.9 43.1,62.6 43.1,62.1 C43.1,61.7 42.8,61.3 42.3,61.3 L38.3,61.3 C38.1,61.3 37.9,61.4 37.8,61.5 C37.7,61.4 37.5,61.3 37.3,61.3 L35.3,61.3 C34.9,61.3 34.5,61.6 34.5,62.1 C34.6,62.6 34.9,62.9 35.3,62.9 Z" id="Shape"></path>
                <path d="M30.3,62.9 L31.3,62.9 C31.7,62.9 32.1,62.6 32.1,62.1 C32.1,61.7 31.8,61.3 31.3,61.3 L30.3,61.3 C29.9,61.3 29.5,61.6 29.5,62.1 C29.5,62.6 29.9,62.9 30.3,62.9 Z" id="Shape"></path>
                <path d="M24.3,62.9 L28.3,62.9 C28.7,62.9 29.1,62.6 29.1,62.1 C29.1,61.7 28.8,61.3 28.3,61.3 L24.3,61.3 C23.9,61.3 23.5,61.6 23.5,62.1 C23.5,62.6 23.9,62.9 24.3,62.9 Z" id="Shape"></path>
                <path d="M82.5,75.6 L81.5,75.6 C81.1,75.6 80.7,75.9 80.7,76.4 C80.7,76.9 81,77.2 81.5,77.2 L82.5,77.2 C82.9,77.2 83.3,76.9 83.3,76.4 C83.3,75.9 83,75.6 82.5,75.6 Z" id="Shape"></path>
                <path d="M76.5,75.6 L75.5,75.6 C75.1,75.6 74.7,75.9 74.7,76.4 C74.7,76.9 75,77.2 75.5,77.2 L76.5,77.2 C76.9,77.2 77.3,76.9 77.3,76.4 C77.3,75.9 76.9,75.6 76.5,75.6 Z" id="Shape"></path>
                <path d="M28.3,75.6 L27.3,75.6 C26.9,75.6 26.5,75.9 26.5,76.4 C26.5,76.9 26.8,77.2 27.3,77.2 L28.3,77.2 C28.7,77.2 29.1,76.9 29.1,76.4 C29.1,75.9 28.7,75.6 28.3,75.6 Z" id="Shape"></path>
                <path d="M34.3,75.6 L33.3,75.6 C32.9,75.6 32.5,75.9 32.5,76.4 C32.5,76.9 32.8,77.2 33.3,77.2 L34.3,77.2 C34.7,77.2 35.1,76.9 35.1,76.4 C35.1,75.9 34.8,75.6 34.3,75.6 Z" id="Shape"></path>
                <path d="M52.4,75.6 L51.4,75.6 C51,75.6 50.6,75.9 50.6,76.4 C50.6,76.9 50.9,77.2 51.4,77.2 L52.4,77.2 C52.8,77.2 53.2,76.9 53.2,76.4 C53.2,75.9 52.8,75.6 52.4,75.6 Z" id="Shape"></path>
                <path d="M46.4,75.6 L45.4,75.6 C45,75.6 44.6,75.9 44.6,76.4 C44.6,76.9 44.9,77.2 45.4,77.2 L46.4,77.2 C46.8,77.2 47.2,76.9 47.2,76.4 C47.2,75.9 46.8,75.6 46.4,75.6 Z" id="Shape"></path>
                <path d="M70.5,75.6 L69.5,75.6 C69.1,75.6 68.7,75.9 68.7,76.4 C68.7,76.9 69,77.2 69.5,77.2 L70.5,77.2 C70.9,77.2 71.3,76.9 71.3,76.4 C71.3,75.9 70.9,75.6 70.5,75.6 Z" id="Shape"></path>
                <path d="M40.4,75.6 L39.4,75.6 C39,75.6 38.6,75.9 38.6,76.4 C38.6,76.9 38.9,77.2 39.4,77.2 L40.4,77.2 C40.8,77.2 41.2,76.9 41.2,76.4 C41.2,75.9 40.8,75.6 40.4,75.6 Z" id="Shape"></path>
                <path d="M58.4,75.6 L57.4,75.6 C57,75.6 56.6,75.9 56.6,76.4 C56.6,76.9 56.9,77.2 57.4,77.2 L58.4,77.2 C58.8,77.2 59.2,76.9 59.2,76.4 C59.2,75.9 58.9,75.6 58.4,75.6 Z" id="Shape"></path>
                <path d="M64.5,75.6 L63.5,75.6 C63.1,75.6 62.7,75.9 62.7,76.4 C62.7,76.9 63,77.2 63.5,77.2 L64.5,77.2 C64.9,77.2 65.3,76.9 65.3,76.4 C65.3,75.9 64.9,75.6 64.5,75.6 Z" id="Shape"></path>
            </g>
        </g>
    </g>
</svg>