<?xml version="1.0" encoding="UTF-8"?>
<svg width="128px" height="122px" viewBox="0 0 128 122" version="1.1" xmlns="http://www.w3.org/2000/svg" xmlns:xlink="http://www.w3.org/1999/xlink">
    <!-- Generator: Sketch 42 (36781) - http://www.bohemiancoding.com/sketch -->
    <title>noun_750024_cc</title>
    <desc>Created with Sketch.</desc>
    <defs></defs>
    <g id="Page-1" stroke="none" stroke-width="1" fill="none" fill-rule="evenodd">
        <g id="noun_750024_cc" fill-rule="nonzero" fill="#000000">
            <g id="Group">
                <path d="M9.1,15.3 C9.1,14.9 8.8,14.5 8.3,14.5 C7.9,14.5 7.5,14.8 7.5,15.3 L7.5,26 C7.5,26.4 7.8,26.8 8.3,26.8 C8.7,26.8 9.1,26.5 9.1,26 L9.1,15.3 Z" id="Shape"></path>
                <path d="M8.4,28.7 C8,28.7 7.6,29 7.6,29.5 L7.6,33 C7.6,33.4 7.9,33.8 8.4,33.8 C8.8,33.8 9.2,33.5 9.2,33 L9.2,29.5 C9.1,29.1 8.8,28.7 8.4,28.7 Z" id="Shape"></path>
                <path d="M126.7,79.6 C126.3,79.6 125.9,79.9 125.9,80.4 L125.9,91.1 C125.9,91.5 126.2,91.9 126.7,91.9 C127.1,91.9 127.5,91.6 127.5,91.1 L127.5,80.4 C127.5,80 127.2,79.6 126.7,79.6 Z" id="Shape"></path>
                <path d="M126.7,93.8 C126.3,93.8 125.9,94.1 125.9,94.6 L125.9,98.1 C125.9,98.5 126.2,98.9 126.7,98.9 C127.1,98.9 127.5,98.6 127.5,98.1 L127.5,94.6 C127.5,94.2 127.2,93.8 126.7,93.8 Z" id="Shape"></path>
                <path d="M109.7,3.7 C109.8,3.8 110,3.9 110.2,3.9 C110.4,3.9 110.6,3.8 110.7,3.7 C111,3.4 111,2.9 110.7,2.6 L109.1,1 C108.8,0.7 108.3,0.7 108,1 C107.7,1.3 107.7,1.8 108,2.1 L109.7,3.7 Z" id="Shape"></path>
                <path d="M115,8.9 C115.1,9 115.3,9.1 115.5,9.1 C115.7,9.1 115.9,9 116,8.9 C116.3,8.6 116.3,8.1 116,7.8 L114.4,6.2 C114.1,5.9 113.6,5.9 113.3,6.2 C113,6.5 113,7 113.3,7.3 L115,8.9 Z" id="Shape"></path>
                <path d="M108.6,9.2 C108.8,9.2 109,9.1 109.1,9 L110.7,7.4 C111,7.1 111,6.6 110.7,6.3 C110.4,6 109.9,6 109.6,6.3 L108,7.9 C107.7,8.2 107.7,8.7 108,9 C108.2,9.1 108.4,9.2 108.6,9.2 Z" id="Shape"></path>
                <path d="M113.9,3.9 C114.1,3.9 114.3,3.8 114.4,3.7 L116,2.1 C116.3,1.8 116.3,1.3 116,1 C115.7,0.7 115.2,0.7 114.9,1 L113.3,2.6 C113,2.9 113,3.4 113.3,3.7 C113.5,3.8 113.7,3.9 113.9,3.9 Z" id="Shape"></path>
                <path d="M13.4,111.4 C13.1,111.1 12.6,111.1 12.3,111.4 C12,111.7 12,112.2 12.3,112.5 L13.9,114.1 C14,114.2 14.2,114.3 14.4,114.3 C14.6,114.3 14.8,114.2 14.9,114.1 C15.2,113.8 15.2,113.3 14.9,113 L13.4,111.4 Z" id="Shape"></path>
                <path d="M18.7,116.7 C18.4,116.4 17.9,116.4 17.6,116.7 C17.3,117 17.3,117.5 17.6,117.8 L19.2,119.4 C19.3,119.5 19.5,119.6 19.7,119.6 C19.9,119.6 20.1,119.5 20.2,119.4 C20.5,119.1 20.5,118.6 20.2,118.3 L18.7,116.7 Z" id="Shape"></path>
                <path d="M14,116.7 L12.4,118.3 C12.1,118.6 12.1,119.1 12.4,119.4 C12.5,119.5 12.7,119.6 12.9,119.6 C13.1,119.6 13.3,119.5 13.4,119.4 L15,117.8 C15.3,117.5 15.3,117 15,116.7 C14.8,116.4 14.3,116.4 14,116.7 Z" id="Shape"></path>
                <path d="M19.3,111.4 L17.7,113 C17.4,113.3 17.4,113.8 17.7,114.1 C17.8,114.2 18,114.3 18.2,114.3 C18.4,114.3 18.6,114.2 18.7,114.1 L20.3,112.5 C20.6,112.2 20.6,111.7 20.3,111.4 C20,111.1 19.6,111.1 19.3,111.4 Z" id="Shape"></path>
                <path d="M121.7,20.6 C119.6,20.6 118,22.3 118,24.3 C118,26.4 119.7,28 121.7,28 C123.8,28 125.4,26.3 125.4,24.3 C125.5,22.3 123.8,20.6 121.7,20.6 Z M121.7,26.6 C120.5,26.6 119.5,25.6 119.5,24.4 C119.5,23.2 120.5,22.2 121.7,22.2 C122.9,22.2 123.9,23.2 123.9,24.4 C123.9,25.6 123,26.6 121.7,26.6 Z" id="Shape"></path>
                <path d="M4.2,90.8 C2.1,90.8 0.5,92.5 0.5,94.5 C0.5,96.6 2.2,98.2 4.2,98.2 C6.3,98.2 7.9,96.5 7.9,94.5 C8,92.5 6.3,90.8 4.2,90.8 Z M4.2,96.8 C3,96.8 2,95.8 2,94.6 C2,93.4 3,92.4 4.2,92.4 C5.4,92.4 6.4,93.4 6.4,94.6 C6.5,95.8 5.5,96.8 4.2,96.8 Z" id="Shape"></path>
                <path d="M14.9,7.3 C14.9,7.7 15.2,8.1 15.7,8.1 L30.6,8.1 C31,8.1 31.4,7.8 31.4,7.3 C31.4,6.8 31,6.6 30.6,6.6 L15.7,6.6 C15.3,6.6 14.9,6.9 14.9,7.3 Z" id="Shape"></path>
                <path d="M6,8.1 L10.8,8.1 C11.2,8.1 11.6,7.8 11.6,7.3 C11.6,6.8 11.3,6.5 10.8,6.5 L6,6.5 C5.6,6.5 5.2,6.8 5.2,7.3 C5.2,7.8 5.6,8.1 6,8.1 Z" id="Shape"></path>
                <path d="M6,3 L16.4,3 C16.8,3 17.2,2.7 17.2,2.2 C17.2,1.7 16.9,1.4 16.4,1.4 L6,1.4 C5.6,1.4 5.2,1.7 5.2,2.2 C5.2,2.7 5.6,3 6,3 Z" id="Shape"></path>
                <path d="M20.8,3 L24.2,3 C24.6,3 25,2.7 25,2.2 C25,1.7 24.7,1.4 24.2,1.4 L20.8,1.4 C20.4,1.4 20,1.7 20,2.2 C20,2.7 20.4,3 20.8,3 Z" id="Shape"></path>
                <path d="M115.4,115.4 C115.4,115 115.1,114.6 114.6,114.6 L99.7,114.6 C99.3,114.6 98.9,114.9 98.9,115.4 C98.9,115.8 99.2,116.2 99.7,116.2 L114.6,116.2 C115,116.1 115.4,115.8 115.4,115.4 Z" id="Shape"></path>
                <path d="M124.3,114.6 L119.5,114.6 C119.1,114.6 118.7,114.9 118.7,115.4 C118.7,115.8 119,116.2 119.5,116.2 L124.3,116.2 C124.7,116.2 125.1,115.9 125.1,115.4 C125.1,114.9 124.8,114.6 124.3,114.6 Z" id="Shape"></path>
                <path d="M124.3,119.7 L114,119.7 C113.6,119.7 113.2,120 113.2,120.5 C113.2,120.9 113.5,121.3 114,121.3 L124.4,121.3 C124.8,121.3 125.2,121 125.2,120.5 C125.1,120.1 124.8,119.7 124.3,119.7 Z" id="Shape"></path>
                <path d="M109.5,119.7 L106.1,119.7 C105.7,119.7 105.3,120 105.3,120.5 C105.3,120.9 105.6,121.3 106.1,121.3 L109.5,121.3 C109.9,121.3 110.3,121 110.3,120.5 C110.2,120.1 109.9,119.7 109.5,119.7 Z" id="Shape"></path>
                <path d="M53.3,57.9 C53.3,58.3 53.7,58.6 54.1,58.6 L76.3,58.6 C76.7,58.6 77,58.3 77.1,57.9 L77.7,49 C78,44.5 75.2,40.3 70.9,38.9 C70.7,38.8 70.5,38.9 70.3,39 C70.1,39.1 70,39.3 70,39.5 C69.8,41.4 67.7,42.8 65.3,42.8 C62.9,42.8 60.9,41.3 60.7,39.5 C60.7,39.3 60.5,39.1 60.4,39 C60.2,38.9 60,38.9 59.8,38.9 C55.5,40.3 52.7,44.5 53,49 L53.3,57.9 Z M59.2,40.6 C60,42.8 62.3,44.3 65.1,44.3 C67.9,44.3 70.3,42.8 71,40.6 C74.2,42 76.3,45.3 76,48.9 L75.5,57.1 L54.7,57.1 L54.2,48.9 C54,45.3 56,42 59.2,40.6 Z" id="Shape"></path>
                <path d="M65.2,39 C69.2,39 72.4,35.6 72.4,31.3 C72.4,27.1 69.2,23.6 65.2,23.6 C61.2,23.6 58,27 58,31.3 C57.9,35.5 61.2,39 65.2,39 Z M65.2,25.1 C68.4,25.1 70.9,27.9 70.9,31.3 C70.9,34.7 68.3,37.5 65.2,37.5 C62,37.5 59.5,34.7 59.5,31.3 C59.5,27.9 62,25.1 65.2,25.1 Z" id="Shape"></path>
                <path d="M70.8,79.4 C70.6,79.3 70.4,79.4 70.2,79.5 C70,79.6 69.9,79.8 69.9,80 C69.7,81.9 67.6,83.3 65.2,83.3 C62.8,83.3 60.8,81.9 60.6,80 C60.6,79.8 60.4,79.6 60.3,79.5 C60.1,79.4 59.9,79.4 59.7,79.4 C55.4,80.8 52.6,85 52.9,89.5 L53.5,98.4 C53.5,98.8 53.9,99.1 54.3,99.1 L76.5,99.1 C76.9,99.1 77.2,98.8 77.3,98.4 L77.9,89.5 C77.9,85 75.1,80.8 70.8,79.4 Z M75.6,97.6 L54.7,97.6 L54.2,89.4 C54,85.8 56,82.5 59.2,81.1 C60,83.3 62.3,84.8 65.1,84.8 C67.9,84.8 70.3,83.3 71,81.1 C74.2,82.5 76.3,85.8 76,89.4 L75.6,97.6 Z" id="Shape"></path>
                <path d="M57.9,71.8 C57.9,76 61.1,79.5 65.1,79.5 C69.1,79.5 72.3,76.1 72.3,71.8 C72.3,67.5 69.1,64.1 65.1,64.1 C61.2,64.1 57.9,67.6 57.9,71.8 Z M70.9,71.8 C70.9,75.2 68.3,78 65.2,78 C62,78 59.5,75.2 59.5,71.8 C59.5,68.4 62.1,65.6 65.2,65.6 C68.3,65.6 70.9,68.4 70.9,71.8 Z" id="Shape"></path>
                <path d="M54.1,78.1 L54.7,69.2 C55,64.7 52.2,60.5 47.9,59.1 C47.7,59 47.5,59.1 47.3,59.2 C47.1,59.3 47,59.5 47,59.7 C46.8,61.6 44.7,63 42.3,63 C39.9,63 37.9,61.5 37.7,59.7 C37.7,59.5 37.5,59.3 37.4,59.2 C37.2,59.1 37,59 36.8,59.1 C32.5,60.5 29.7,64.7 30,69.2 L30.6,78.1 C30.6,78.5 31,78.8 31.4,78.8 L53.6,78.8 C53.7,78.8 54.1,78.5 54.1,78.1 Z M52.6,77.3 L31.8,77.3 L31.3,69.1 C31.1,65.5 33.1,62.2 36.3,60.8 C37.1,63 39.4,64.5 42.2,64.5 C45,64.5 47.4,63 48.1,60.8 C51.3,62.2 53.4,65.5 53.1,69.1 L52.6,77.3 Z" id="Shape"></path>
                <path d="M42.2,59.2 C46.2,59.2 49.4,55.8 49.4,51.5 C49.4,47.3 46.2,43.8 42.2,43.8 C38.2,43.8 35,47.2 35,51.5 C35,55.8 38.2,59.2 42.2,59.2 Z M42.2,45.4 C45.4,45.4 47.9,48.2 47.9,51.6 C47.9,55 45.3,57.8 42.2,57.8 C39,57.8 36.5,55 36.5,51.6 C36.5,48.1 39,45.4 42.2,45.4 Z" id="Shape"></path>
                <path d="M93.7,59.1 C93.5,59 93.3,59.1 93.1,59.2 C92.9,59.3 92.8,59.5 92.8,59.7 C92.6,61.6 90.5,63 88.1,63 C85.7,63 83.7,61.5 83.5,59.7 C83.5,59.5 83.3,59.3 83.2,59.2 C83,59.1 82.8,59 82.6,59.1 C78.3,60.5 75.5,64.7 75.8,69.2 L76.4,78.1 C76.4,78.5 76.8,78.8 77.2,78.8 L99.4,78.8 C99.8,78.8 100.1,78.5 100.2,78.1 L100.8,69.2 C100.9,64.7 98.1,60.6 93.7,59.1 Z M98.5,77.3 L77.7,77.3 L77.2,69.1 C77,65.5 79,62.2 82.2,60.8 C83,63 85.3,64.5 88.1,64.5 C90.9,64.5 93.3,63 94,60.8 C97.2,62.2 99.3,65.5 99,69.1 L98.5,77.3 Z" id="Shape"></path>
                <path d="M88.1,59.2 C92.1,59.2 95.3,55.8 95.3,51.5 C95.3,47.3 92.1,43.8 88.1,43.8 C84.1,43.8 80.9,47.2 80.9,51.5 C80.9,55.8 84.1,59.2 88.1,59.2 Z M88.1,45.4 C91.3,45.4 93.8,48.2 93.8,51.6 C93.8,55 91.2,57.8 88.1,57.8 C84.9,57.8 82.4,55 82.4,51.6 C82.4,48.1 85,45.4 88.1,45.4 Z" id="Shape"></path>
                <path d="M9.6,66.9 C9.6,66.5 9.2,66.2 8.8,66.2 C8.4,66.2 8.1,66.6 8.1,67 C10.8,94.1 32.4,115.6 59.6,118.3 L59.7,117.6 L59.7,116.8 C33.3,114.3 12.2,93.3 9.6,66.9 Z" id="Shape"></path>
                <path d="M8.8,56.7 L8.8,56.7 C9.3,56.7 9.6,56.4 9.6,56 L9.6,55.9 C12.2,29.5 33.2,8.5 59.5,5.8 C59.9,5.8 60.2,5.4 60.2,5 C60.2,4.6 59.8,4.3 59.4,4.3 C32.3,7 10.8,28.7 8.1,55.8 L8.1,55.9 C8.1,56.3 8.4,56.6 8.8,56.7 Z" id="Shape"></path>
                <path d="M70.4,5.8 L70.6,5.8 C97,8.4 118,29.3 120.7,55.6 C120.7,56 121.1,56.3 121.4,56.3 L121.5,56.3 C121.9,56.3 122.2,55.9 122.2,55.5 C119.5,28.5 97.8,7 70.8,4.3 L70.6,4.3 C70.2,4.3 69.8,4.6 69.8,5 C69.7,5.4 70,5.7 70.4,5.8 Z" id="Shape"></path>
                <path d="M122.2,66.9 L122.2,66.7 C122.2,66.3 121.9,65.9 121.5,65.9 C121.1,65.8 120.7,66.2 120.7,66.6 L120.7,66.8 C118.1,93.2 97.1,114.3 70.7,116.9 C70.3,116.9 70,117.3 70,117.7 C70,118.1 70.4,118.4 70.7,118.4 L70.8,118.4 C98,115.7 119.6,94.1 122.2,66.9 Z" id="Shape"></path>
                <path d="M101.1,97.2 C101.1,97.2 101.1,97.1 101.2,97.1 C110.3,87.9 116,75.3 116,61.3 C116,47.4 110.3,34.7 101.2,25.5 C101.2,25.5 101.2,25.4 101.1,25.4 C101.1,25.4 101,25.4 101,25.3 C91.8,16.2 79.2,10.5 65.2,10.5 C51.3,10.5 38.6,16.2 29.4,25.3 C29.4,25.3 29.3,25.3 29.3,25.4 C29.3,25.5 29.3,25.5 29.2,25.5 C20.1,34.7 14.4,47.3 14.4,61.3 C14.4,75.2 20.1,87.9 29.2,97.1 C29.2,97.1 29.2,97.2 29.3,97.2 L29.4,97.3 C38.6,106.4 51.2,112.1 65.2,112.1 C79.1,112.1 91.8,106.4 101,97.3 C101,97.3 101,97.3 101.1,97.2 Z M98,93.1 C97.7,92.8 97.2,92.8 96.9,93.1 C96.6,93.4 96.6,93.9 96.9,94.2 L99.4,96.7 C90.7,105.1 78.9,110.4 65.9,110.6 L65.9,105.1 C65.9,104.7 65.6,104.3 65.1,104.3 C64.7,104.3 64.3,104.6 64.3,105.1 L64.3,110.6 C51.3,110.4 39.5,105.1 30.8,96.7 L33.3,94.2 C33.6,93.9 33.6,93.4 33.3,93.1 C33,92.8 32.5,92.8 32.2,93.1 L29.7,95.6 C21.3,86.9 16,75.1 15.8,62.1 L21.3,62.1 C21.7,62.1 22.1,61.8 22.1,61.3 C22.1,60.9 21.8,60.5 21.3,60.5 L15.8,60.5 C16,47.5 21.3,35.7 29.7,27 L32.2,29.5 C32.3,29.6 32.5,29.7 32.7,29.7 C32.9,29.7 33.1,29.6 33.2,29.5 C33.5,29.2 33.5,28.7 33.2,28.4 L30.9,26 C39.6,17.6 51.4,12.3 64.4,12.1 L64.4,17.6 C64.4,18 64.7,18.4 65.2,18.4 C65.6,18.4 66,18.1 66,17.6 L66,12.1 C79,12.3 90.8,17.6 99.5,26 L97,28.5 C96.7,28.8 96.7,29.3 97,29.6 C97.1,29.7 97.3,29.8 97.5,29.8 C97.7,29.8 97.9,29.7 98,29.6 L100.5,27.1 C108.9,35.8 114.2,47.6 114.4,60.6 L108.9,60.6 C108.5,60.6 108.1,60.9 108.1,61.4 C108.1,61.8 108.4,62.2 108.9,62.2 L114.4,62.2 C114.2,75.2 108.9,87 100.5,95.7 L98,93.1 Z" id="Shape"></path>
            </g>
        </g>
    </g>
</svg>